<?xml version="1.0" encoding="UTF-8" standalone="no"?><svg xmlns="http://www.w3.org/2000/svg" xmlns:xlink="http://www.w3.org/1999/xlink" contentScriptType="application/ecmascript" contentStyleType="text/css" height="306px" preserveAspectRatio="none" style="width:718px;height:306px;background:#FFFFFF;" version="1.1" viewBox="0 0 718 306" width="718px" zoomAndPan="magnify"><defs><filter height="300%" id="f109q89tgmbrh8" width="300%" x="-1" y="-1"><feGaussianBlur result="blurOut" stdDeviation="2.0"/><feColorMatrix in="blurOut" result="blurOut2" type="matrix" values="0 0 0 0 0 0 0 0 0 0 0 0 0 0 0 0 0 0 .4 0"/><feOffset dx="4.0" dy="4.0" in="blurOut2" result="blurOut3"/><feBlend in="SourceGraphic" in2="blurOut3" mode="normal"/></filter></defs><g><text fill="#000000" font-family="sans-serif" font-size="18" lengthAdjust="spacing" textLength="127" x="289.25" y="17.4023">GBPC-领域模型</text><!--MD5=[de3cd28c4f764ae5be33d373afaf8950]
class sender--><rect codeLine="12" fill="#FEFECE" filter="url(#f109q89tgmbrh8)" height="48" id="sender" style="stroke:#A80036;stroke-width:1.5;" width="92" x="249" y="28.1992"/><ellipse cx="264" cy="44.1992" fill="#B4A7E5" rx="11" ry="11" style="stroke:#A80036;stroke-width:1.0;"/><path d="M260.4277,40.4644 L260.4277,38.3062 L267.8071,38.3062 L267.8071,40.4644 L265.3418,40.4644 L265.3418,48.541 L267.8071,48.541 L267.8071,50.6992 L260.4277,50.6992 L260.4277,48.541 L262.8931,48.541 L262.8931,40.4644 Z " fill="#000000"/><text fill="#000000" font-family="sans-serif" font-size="12" font-style="italic" lengthAdjust="spacing" textLength="60" x="278" y="48.7344">命令执行器</text><line style="stroke:#A80036;stroke-width:1.5;" x1="250" x2="340" y1="60.1992" y2="60.1992"/><line style="stroke:#A80036;stroke-width:1.5;" x1="250" x2="340" y1="68.1992" y2="68.1992"/><!--MD5=[9116f4c5dd121785110620cdebcfb8b9]
class policy_manager--><rect codeLine="13" fill="#FEFECE" filter="url(#f109q89tgmbrh8)" height="48" id="policy_manager" style="stroke:#A80036;stroke-width:1.5;" width="92" x="249" y="136.1992"/><ellipse cx="264" cy="152.1992" fill="#ADD1B2" rx="11" ry="11" style="stroke:#A80036;stroke-width:1.0;"/><path d="M267.6143,158.6992 L259.8945,158.6992 L259.8945,146.3062 L267.6143,146.3062 L267.6143,148.4644 L262.3433,148.4644 L262.3433,151.1372 L267.1162,151.1372 L267.1162,153.2954 L262.3433,153.2954 L262.3433,156.541 L267.6143,156.541 Z " fill="#000000"/><text fill="#000000" font-family="sans-serif" font-size="12" lengthAdjust="spacing" textLength="60" x="278" y="156.7344">策略管理器</text><line style="stroke:#A80036;stroke-width:1.5;" x1="250" x2="340" y1="168.1992" y2="168.1992"/><line style="stroke:#A80036;stroke-width:1.5;" x1="250" x2="340" y1="176.1992" y2="176.1992"/><!--MD5=[5894eb45765fc9d2ff42bf7ff7806d89]
class policy_sender--><rect codeLine="14" fill="#FEFECE" filter="url(#f109q89tgmbrh8)" height="48" id="policy_sender" style="stroke:#A80036;stroke-width:1.5;" width="92" x="186" y="244.1992"/><ellipse cx="201" cy="260.1992" fill="#ADD1B2" rx="11" ry="11" style="stroke:#A80036;stroke-width:1.0;"/><path d="M204.6143,266.6992 L196.8945,266.6992 L196.8945,254.3062 L204.6143,254.3062 L204.6143,256.4644 L199.3433,256.4644 L199.3433,259.1372 L204.1162,259.1372 L204.1162,261.2954 L199.3433,261.2954 L199.3433,264.541 L204.6143,264.541 Z " fill="#000000"/><text fill="#000000" font-family="sans-serif" font-size="12" lengthAdjust="spacing" textLength="60" x="215" y="264.7344">策略分发器</text><line style="stroke:#A80036;stroke-width:1.5;" x1="187" x2="277" y1="276.1992" y2="276.1992"/><line style="stroke:#A80036;stroke-width:1.5;" x1="187" x2="277" y1="284.1992" y2="284.1992"/><!--MD5=[e5a376ab5e0e7afa8f238cec4be34a94]
class policy_parser--><rect codeLine="15" fill="#FEFECE" filter="url(#f109q89tgmbrh8)" height="48" id="policy_parser" style="stroke:#A80036;stroke-width:1.5;" width="92" x="313" y="244.1992"/><ellipse cx="328" cy="260.1992" fill="#ADD1B2" rx="11" ry="11" style="stroke:#A80036;stroke-width:1.0;"/><path d="M331.6143,266.6992 L323.8945,266.6992 L323.8945,254.3062 L331.6143,254.3062 L331.6143,256.4644 L326.3433,256.4644 L326.3433,259.1372 L331.1162,259.1372 L331.1162,261.2954 L326.3433,261.2954 L326.3433,264.541 L331.6143,264.541 Z " fill="#000000"/><text fill="#000000" font-family="sans-serif" font-size="12" lengthAdjust="spacing" textLength="60" x="342" y="264.7344">策略解析器</text><line style="stroke:#A80036;stroke-width:1.5;" x1="314" x2="404" y1="276.1992" y2="276.1992"/><line style="stroke:#A80036;stroke-width:1.5;" x1="314" x2="404" y1="284.1992" y2="284.1992"/><!--MD5=[5b531ea16ae1ff7a10e9d567d815e09a]
class 分组管理器--><rect codeLine="21" fill="#FEFECE" filter="url(#f109q89tgmbrh8)" height="48" id="分组管理器" style="stroke:#A80036;stroke-width:1.5;" width="92" x="7" y="28.1992"/><ellipse cx="22" cy="44.1992" fill="#ADD1B2" rx="11" ry="11" style="stroke:#A80036;stroke-width:1.0;"/><path d="M25.6143,50.6992 L17.8945,50.6992 L17.8945,38.3062 L25.6143,38.3062 L25.6143,40.4644 L20.3433,40.4644 L20.3433,43.1372 L25.1162,43.1372 L25.1162,45.2954 L20.3433,45.2954 L20.3433,48.541 L25.6143,48.541 Z " fill="#000000"/><text fill="#000000" font-family="sans-serif" font-size="12" lengthAdjust="spacing" textLength="60" x="36" y="48.7344">分组管理器</text><line style="stroke:#A80036;stroke-width:1.5;" x1="8" x2="98" y1="60.1992" y2="60.1992"/><line style="stroke:#A80036;stroke-width:1.5;" x1="8" x2="98" y1="68.1992" y2="68.1992"/><!--MD5=[5c735ad03cfa0137ffe0f4881063d2bb]
class 分组标签--><rect codeLine="23" fill="#FEFECE" filter="url(#f109q89tgmbrh8)" height="48" id="分组标签" style="stroke:#A80036;stroke-width:1.5;" width="80" x="134" y="28.1992"/><ellipse cx="149" cy="44.1992" fill="#ADD1B2" rx="11" ry="11" style="stroke:#A80036;stroke-width:1.0;"/><path d="M152.6143,50.6992 L144.8945,50.6992 L144.8945,38.3062 L152.6143,38.3062 L152.6143,40.4644 L147.3433,40.4644 L147.3433,43.1372 L152.1162,43.1372 L152.1162,45.2954 L147.3433,45.2954 L147.3433,48.541 L152.6143,48.541 Z " fill="#000000"/><text fill="#000000" font-family="sans-serif" font-size="12" lengthAdjust="spacing" textLength="48" x="163" y="48.7344">分组标签</text><line style="stroke:#A80036;stroke-width:1.5;" x1="135" x2="213" y1="60.1992" y2="60.1992"/><line style="stroke:#A80036;stroke-width:1.5;" x1="135" x2="213" y1="68.1992" y2="68.1992"/><!--MD5=[4ab806018877d3903710dc31d2532be9]
class 分组规则--><rect codeLine="24" fill="#FEFECE" filter="url(#f109q89tgmbrh8)" height="48" id="分组规则" style="stroke:#A80036;stroke-width:1.5;" width="80" x="13" y="136.1992"/><ellipse cx="28" cy="152.1992" fill="#ADD1B2" rx="11" ry="11" style="stroke:#A80036;stroke-width:1.0;"/><path d="M31.6143,158.6992 L23.8945,158.6992 L23.8945,146.3062 L31.6143,146.3062 L31.6143,148.4644 L26.3433,148.4644 L26.3433,151.1372 L31.1162,151.1372 L31.1162,153.2954 L26.3433,153.2954 L26.3433,156.541 L31.6143,156.541 Z " fill="#000000"/><text fill="#000000" font-family="sans-serif" font-size="12" lengthAdjust="spacing" textLength="48" x="42" y="156.7344">分组规则</text><line style="stroke:#A80036;stroke-width:1.5;" x1="14" x2="92" y1="168.1992" y2="168.1992"/><line style="stroke:#A80036;stroke-width:1.5;" x1="14" x2="92" y1="176.1992" y2="176.1992"/><!--MD5=[a0a1f7f9662f43ef0ece806266f72a6f]
class Executor--><rect codeLine="27" fill="#FEFECE" filter="url(#f109q89tgmbrh8)" height="48" id="Executor" style="stroke:#A80036;stroke-width:1.5;" width="92" x="496" y="28.1992"/><ellipse cx="511" cy="44.1992" fill="#A9DCDF" rx="11" ry="11" style="stroke:#A80036;stroke-width:1.0;"/><path d="M510.8633,39.5474 L509.7095,44.6191 L512.0254,44.6191 Z M509.3691,37.3062 L512.3657,37.3062 L515.7109,49.6992 L513.2622,49.6992 L512.4985,46.6362 L509.2197,46.6362 L508.4727,49.6992 L506.0239,49.6992 Z " fill="#000000"/><text fill="#000000" font-family="sans-serif" font-size="12" font-style="italic" lengthAdjust="spacing" textLength="60" x="525" y="48.7344">策略执行者</text><line style="stroke:#A80036;stroke-width:1.5;" x1="497" x2="587" y1="60.1992" y2="60.1992"/><line style="stroke:#A80036;stroke-width:1.5;" x1="497" x2="587" y1="68.1992" y2="68.1992"/><!--MD5=[0726ee665b1d0c865c837f2738652a9d]
class SHELL终端--><rect fill="#FEFECE" filter="url(#f109q89tgmbrh8)" height="48" id="SHELL终端" style="stroke:#A80036;stroke-width:1.5;" width="90" x="376" y="136.1992"/><ellipse cx="391" cy="152.1992" fill="#ADD1B2" rx="11" ry="11" style="stroke:#A80036;stroke-width:1.0;"/><path d="M393.4731,158.3423 Q392.8921,158.6411 392.2529,158.7905 Q391.6138,158.9399 390.9082,158.9399 Q388.4014,158.9399 387.0815,157.2881 Q385.7617,155.6362 385.7617,152.5151 Q385.7617,149.3857 387.0815,147.7339 Q388.4014,146.082 390.9082,146.082 Q391.6138,146.082 392.2612,146.2314 Q392.9087,146.3809 393.4731,146.6797 L393.4731,149.4023 Q392.8423,148.8213 392.2488,148.5515 Q391.6553,148.2817 391.0244,148.2817 Q389.6797,148.2817 388.9949,149.3484 Q388.3101,150.415 388.3101,152.5151 Q388.3101,154.6069 388.9949,155.6736 Q389.6797,156.7402 391.0244,156.7402 Q391.6553,156.7402 392.2488,156.4705 Q392.8423,156.2007 393.4731,155.6196 Z " fill="#000000"/><text fill="#000000" font-family="sans-serif" font-size="12" lengthAdjust="spacing" textLength="58" x="405" y="156.7344">SHELL终端</text><line style="stroke:#A80036;stroke-width:1.5;" x1="377" x2="465" y1="168.1992" y2="168.1992"/><line style="stroke:#A80036;stroke-width:1.5;" x1="377" x2="465" y1="176.1992" y2="176.1992"/><!--MD5=[d67042fcc0c36b016d857667b34b219a]
class Pipe管道--><rect fill="#FEFECE" filter="url(#f109q89tgmbrh8)" height="48" id="Pipe管道" style="stroke:#A80036;stroke-width:1.5;" width="81" x="501.5" y="136.1992"/><ellipse cx="516.5" cy="152.1992" fill="#ADD1B2" rx="11" ry="11" style="stroke:#A80036;stroke-width:1.0;"/><path d="M518.9731,158.3423 Q518.3921,158.6411 517.7529,158.7905 Q517.1138,158.9399 516.4082,158.9399 Q513.9014,158.9399 512.5815,157.2881 Q511.2617,155.6362 511.2617,152.5151 Q511.2617,149.3857 512.5815,147.7339 Q513.9014,146.082 516.4082,146.082 Q517.1138,146.082 517.7612,146.2314 Q518.4087,146.3809 518.9731,146.6797 L518.9731,149.4023 Q518.3423,148.8213 517.7488,148.5515 Q517.1553,148.2817 516.5244,148.2817 Q515.1797,148.2817 514.4949,149.3484 Q513.8101,150.415 513.8101,152.5151 Q513.8101,154.6069 514.4949,155.6736 Q515.1797,156.7402 516.5244,156.7402 Q517.1553,156.7402 517.7488,156.4705 Q518.3423,156.2007 518.9731,155.6196 Z " fill="#000000"/><text fill="#000000" font-family="sans-serif" font-size="12" lengthAdjust="spacing" textLength="49" x="530.5" y="156.7344">Pipe管道</text><line style="stroke:#A80036;stroke-width:1.5;" x1="502.5" x2="581.5" y1="168.1992" y2="168.1992"/><line style="stroke:#A80036;stroke-width:1.5;" x1="502.5" x2="581.5" y1="176.1992" y2="176.1992"/><!--MD5=[0a499150aad6055e41e98bdf742611a4]
class MQ订阅者--><rect fill="#FEFECE" filter="url(#f109q89tgmbrh8)" height="48" id="MQ订阅者" style="stroke:#A80036;stroke-width:1.5;" width="87" x="617.5" y="136.1992"/><ellipse cx="632.5" cy="152.1992" fill="#ADD1B2" rx="11" ry="11" style="stroke:#A80036;stroke-width:1.0;"/><path d="M634.9731,158.3423 Q634.3921,158.6411 633.7529,158.7905 Q633.1138,158.9399 632.4082,158.9399 Q629.9014,158.9399 628.5815,157.2881 Q627.2617,155.6362 627.2617,152.5151 Q627.2617,149.3857 628.5815,147.7339 Q629.9014,146.082 632.4082,146.082 Q633.1138,146.082 633.7612,146.2314 Q634.4087,146.3809 634.9731,146.6797 L634.9731,149.4023 Q634.3423,148.8213 633.7488,148.5515 Q633.1553,148.2817 632.5244,148.2817 Q631.1797,148.2817 630.4949,149.3484 Q629.8101,150.415 629.8101,152.5151 Q629.8101,154.6069 630.4949,155.6736 Q631.1797,156.7402 632.5244,156.7402 Q633.1553,156.7402 633.7488,156.4705 Q634.3423,156.2007 634.9731,155.6196 Z " fill="#000000"/><text fill="#000000" font-family="sans-serif" font-size="12" lengthAdjust="spacing" textLength="55" x="646.5" y="156.7344">MQ订阅者</text><line style="stroke:#A80036;stroke-width:1.5;" x1="618.5" x2="703.5" y1="168.1992" y2="168.1992"/><line style="stroke:#A80036;stroke-width:1.5;" x1="618.5" x2="703.5" y1="176.1992" y2="176.1992"/><!--MD5=[b794b979f6bf04b40a12949d71e96de7]
reverse link sender to policy_manager--><path codeLine="16" d="M295,96.2192 C295,109.7792 295,124.2392 295,135.8792 " fill="none" id="sender-backto-policy_manager" style="stroke:#A80036;stroke-width:1.0;stroke-dasharray:7.0,7.0;"/><polygon fill="none" points="288,96.1992,295,76.1992,302,96.1992,288,96.1992" style="stroke:#A80036;stroke-width:1.0;"/><!--MD5=[8bece69de595cc983d178d65ae341c0f]
reverse link policy_manager to policy_parser--><path codeLine="17" d="M315.81,195.6692 C325.34,211.4492 336.38,229.7392 344.92,243.8792 " fill="none" id="policy_manager-backto-policy_parser" style="stroke:#A80036;stroke-width:1.0;"/><polygon fill="#A80036" points="308.89,184.1992,308.5647,191.403,315.0891,194.474,315.4145,187.2702,308.89,184.1992" style="stroke:#A80036;stroke-width:1.0;"/><!--MD5=[4ba75380c7d2c71f4e72fcd3fe7518a5]
reverse link policy_manager to policy_sender--><path codeLine="18" d="M274.51,195.6692 C265.13,211.4492 254.26,229.7392 245.86,243.8792 " fill="none" id="policy_manager-backto-policy_sender" style="stroke:#A80036;stroke-width:1.0;"/><polygon fill="#A80036" points="281.33,184.1992,274.8253,187.312,275.1968,194.5135,281.7015,191.4007,281.33,184.1992" style="stroke:#A80036;stroke-width:1.0;"/><!--MD5=[ece62d59aeac4d00d4614c39483102de]
reverse link Executor to SHELL终端--><path codeLine="28" d="M500.52,89.5392 C483.01,104.8792 463.12,122.2992 447.62,135.8792 " fill="none" id="Executor-backto-SHELL终端" style="stroke:#A80036;stroke-width:1.0;"/><polygon fill="none" points="496.09,84.1092,515.74,76.1992,505.31,94.6392,496.09,84.1092" style="stroke:#A80036;stroke-width:1.0;"/><!--MD5=[f97da38ddff80c9b48fa702fbe8c44a3]
reverse link Executor to Pipe管道--><path codeLine="29" d="M542,96.2192 C542,109.7792 542,124.2392 542,135.8792 " fill="none" id="Executor-backto-Pipe管道" style="stroke:#A80036;stroke-width:1.0;"/><polygon fill="none" points="535,96.1992,542,76.1992,549,96.1992,535,96.1992" style="stroke:#A80036;stroke-width:1.0;"/><!--MD5=[29b942f7a15c9c83a0f857557fac5ea9]
reverse link Executor to MQ订阅者--><path codeLine="30" d="M582.79,89.5392 C600.02,104.8792 619.57,122.2992 634.82,135.8792 " fill="none" id="Executor-backto-MQ订阅者" style="stroke:#A80036;stroke-width:1.0;"/><polygon fill="none" points="578.1,94.7292,567.82,76.1992,587.41,84.2792,578.1,94.7292" style="stroke:#A80036;stroke-width:1.0;"/><!--MD5=[9fd95c5bd9c7726777ca7f5e9c4b9c04]
link 分组管理器 to 分组标签--><!--MD5=[ffcc31e61ccbaec640b896f8c101c771]
link 分组管理器 to 分组规则--><!--MD5=[4e9f75fb9d79fbe1c6efd094cd14ec27]
@startuml udcp-domain-model
title GBPC-领域模型
'abstract        抽象
'abstract class  抽象(等同abstract)
'annotation      注解
'circle          圆
'()              圆缩写形式
'class           类
'diamond         菱形
'<>              菱形写形式

'enum            枚举
interface "命令执行器" as sender
entity    "策略管理器" as policy_manager
entity    "策略分发器" as policy_sender
entity    "策略解析器" as policy_parser
sender<|..policy_manager
policy_manager *- - policy_parser
policy_manager *- - policy_sender


entity      分组管理器

entity       分组标签
entity       分组规则


abstract       "策略执行者" as Executor
Executor  <|- - SHELL终端
Executor  <|- - Pipe管道
Executor  <|- - MQ订阅者

'IPay<|..AliPay:【Realization】实现
'Computer o- - Keyboards:聚合
'Bird *- - Wing:组合

' ================================================================
newpage

title 注释
交通工具 <|- - - 公交车
交通工具 <|- - - 摩托车


note bottom: 注释在底部
note top of 交通工具: 注释在顶部
note left of 交通工具: 注释在左边
note right of 交通工具: 注释在右边
note on link #99FF99: 泛化(给连线添加注解)


note "使用双点连接\n到多个对象"  as N2 #f0f0f0

交通工具 .. N2
N2 .. 公交车
N2 .. 摩托车

class Server{
   - string Name
   + void Run()
   + void Run(int port)
}

note left of Server::Name
  给属性成员添加注释
end note
note left of Server::Run
  给方法添加注释
end note
note left of Server::"void Run(int port)"
  给【重载】方法添加注释
end note

newpage
title 定义类(两种)
'方式一
Object  <|- - ArrayList:泛化
Object : bool equals()
ArrayList : Object[] Data
ArrayList : int Size()

class Handler << general >>
Handler : Data char[]
Handler : DoSomething()

'方式二
class Dummy {
  string Filed1
  void Method1()
  {field} char Method1()
  {method} float Filed2
}
note bottom of Dummy:  可以使用field或method\n标识符强制声明字段或方法

'枚举
enum Sex {
  男
  女
}
@enduml

@startuml udcp-domain-model
title GBPC-领域模型

interface "命令执行器" as sender
entity    "策略管理器" as policy_manager
entity    "策略分发器" as policy_sender
entity    "策略解析器" as policy_parser
sender<|..policy_manager
policy_manager *- - policy_parser
policy_manager *- - policy_sender


entity      分组管理器

entity       分组标签
entity       分组规则


abstract       "策略执行者" as Executor
Executor  <|- - SHELL终端
Executor  <|- - Pipe管道
Executor  <|- - MQ订阅者


newpage

title 注释
交通工具 <|- - - 公交车
交通工具 <|- - - 摩托车


note bottom: 注释在底部
note top of 交通工具: 注释在顶部
note left of 交通工具: 注释在左边
note right of 交通工具: 注释在右边
note on link #99FF99: 泛化(给连线添加注解)


note "使用双点连接\n到多个对象"  as N2 #f0f0f0

交通工具 .. N2
N2 .. 公交车
N2 .. 摩托车

class Server{
   - string Name
   + void Run()
   + void Run(int port)
}

note left of Server::Name
  给属性成员添加注释
end note
note left of Server::Run
  给方法添加注释
end note
note left of Server::"void Run(int port)"
  给【重载】方法添加注释
end note

newpage
title 定义类(两种)
Object  <|- - ArrayList:泛化
Object : bool equals()
ArrayList : Object[] Data
ArrayList : int Size()

class Handler << general >>
Handler : Data char[]
Handler : DoSomething()

class Dummy {
  string Filed1
  void Method1()
  {field} char Method1()
  {method} float Filed2
}
note bottom of Dummy:  可以使用field或method\n标识符强制声明字段或方法

enum Sex {
  男
  女
}
@enduml

PlantUML version 1.2022.0(Wed Jan 12 00:16:42 CST 2022)
(GPL source distribution)
Java Runtime: OpenJDK Runtime Environment
JVM: OpenJDK 64-Bit Server VM
Default Encoding: UTF-8
Language: zh
Country: CN
--></g></svg>