<?xml version="1.0" encoding="UTF-8" standalone="no"?><svg xmlns="http://www.w3.org/2000/svg" xmlns:xlink="http://www.w3.org/1999/xlink" contentScriptType="application/ecmascript" contentStyleType="text/css" height="318px" preserveAspectRatio="none" style="width:625px;height:238px;background:#FFFFFF;" version="1.1" viewBox="0 0 425 238" width="560px" zoomAndPan="magnify"><defs><filter height="300%" id="f1j4wk4cv6tt2v" width="300%" x="-1" y="-1"><feGaussianBlur result="blurOut" stdDeviation="2.0"/><feColorMatrix in="blurOut" result="blurOut2" type="matrix" values="0 0 0 0 0 0 0 0 0 0 0 0 0 0 0 0 0 0 .4 0"/><feOffset dx="4.0" dy="4.0" in="blurOut2" result="blurOut3"/><feBlend in="SourceGraphic" in2="blurOut3" mode="normal"/></filter></defs><g><text fill="#000000" font-family="sans-serif" font-size="18" lengthAdjust="spacing" textLength="144" x="134" y="17.4023">GBPC-1 分层模型</text><!--MD5=[dad1940d6bc530b36fdf440583587a83]
class executer--><rect codeLine="4" fill="#FEFECE" filter="url(#f1j4wk4cv6tt2v)" height="54.2656" id="executer" style="stroke:#A80036;stroke-width:1.5;" width="90" x="7" y="41.1992"/><text fill="#000000" font-family="sans-serif" font-size="12" lengthAdjust="spacing" textLength="76" x="14" y="57.8008">&lt;&lt;执行者&gt;&gt;</text><text fill="#000000" font-family="sans-serif" font-size="12" lengthAdjust="spacing" textLength="50" x="27" y="71.9336">Executer</text><line style="stroke:#A80036;stroke-width:1.5;" x1="8" x2="96" y1="79.4648" y2="79.4648"/><line style="stroke:#A80036;stroke-width:1.5;" x1="8" x2="96" y1="87.4648" y2="87.4648"/><!--MD5=[83a7e20887a0e66b3fb3b0edc8d801ef]
class group--><rect codeLine="7" fill="#FEFECE" filter="url(#f1j4wk4cv6tt2v)" height="54.2656" id="group" style="stroke:#A80036;stroke-width:1.5;" width="78" x="158" y="41.1992"/><text fill="#000000" font-family="sans-serif" font-size="12" lengthAdjust="spacing" textLength="64" x="165" y="57.8008">&lt;&lt;分组&gt;&gt;</text><text fill="#000000" font-family="sans-serif" font-size="12" lengthAdjust="spacing" textLength="36" x="179" y="71.9336">Group</text><line style="stroke:#A80036;stroke-width:1.5;" x1="159" x2="235" y1="79.4648" y2="79.4648"/><line style="stroke:#A80036;stroke-width:1.5;" x1="159" x2="235" y1="87.4648" y2="87.4648"/><!--MD5=[3105e977017215c62956ee5c147722ae]
class policy--><rect codeLine="10" fill="#FEFECE" filter="url(#f1j4wk4cv6tt2v)" height="80.1758" id="policy" style="stroke:#A80036;stroke-width:1.5;" width="100" x="311" y="28.1992"/><text fill="#000000" font-family="sans-serif" font-size="12" lengthAdjust="spacing" textLength="64" x="329" y="44.8008">&lt;&lt;策略&gt;&gt;</text><text fill="#000000" font-family="sans-serif" font-size="12" lengthAdjust="spacing" textLength="32" x="345" y="58.9336">Policy</text><line style="stroke:#A80036;stroke-width:1.5;" x1="312" x2="410" y1="66.4648" y2="66.4648"/><ellipse cx="322" cy="77.4648" fill="#000000" rx="3" ry="3" style="stroke:#000000;stroke-width:1.0;"/><text fill="#000000" font-family="sans-serif" font-size="11" lengthAdjust="spacing" textLength="74" x="331" y="81.0996">«元数据» meta</text><ellipse cx="322" cy="90.4199" fill="#000000" rx="3" ry="3" style="stroke:#000000;stroke-width:1.0;"/><text fill="#000000" font-family="sans-serif" font-size="11" lengthAdjust="spacing" textLength="57" x="331" y="94.0547">«操作» ops</text><line style="stroke:#A80036;stroke-width:1.5;" x1="312" x2="410" y1="100.375" y2="100.375"/><!--MD5=[d39b0e5acf37d349c49873ef54346d0c]
class session--><rect codeLine="15" fill="#FEFECE" filter="url(#f1j4wk4cv6tt2v)" height="54.2656" id="session" style="stroke:#A80036;stroke-width:1.5;" width="78" x="13" y="170.1992"/><text fill="#000000" font-family="sans-serif" font-size="12" lengthAdjust="spacing" textLength="64" x="20" y="186.8008">&lt;&lt;会话&gt;&gt;</text><text fill="#000000" font-family="sans-serif" font-size="12" lengthAdjust="spacing" textLength="42" x="31" y="200.9336">Session</text><line style="stroke:#A80036;stroke-width:1.5;" x1="14" x2="90" y1="208.4648" y2="208.4648"/><line style="stroke:#A80036;stroke-width:1.5;" x1="14" x2="90" y1="216.4648" y2="216.4648"/><path d="M126.5,169.1992 L126.5,225.1309 A0,0 0 0 0 126.5,225.1309 L373.5,225.1309 A0,0 0 0 0 373.5,225.1309 L373.5,179.1992 L363.5,169.1992 L242.61,169.1992 L207.85,95.2092 L234.61,169.1992 L126.5,169.1992 A0,0 0 0 0 126.5,169.1992 " fill="#FBFB77" filter="url(#f1j4wk4cv6tt2v)" style="stroke:#A80036;stroke-width:1.0;"/><path d="M363.5,169.1992 L363.5,179.1992 L373.5,179.1992 L363.5,169.1992 " fill="#FBFB77" style="stroke:#A80036;stroke-width:1.0;"/><text fill="#000000" font-family="sans-serif" font-size="13" lengthAdjust="spacing" textLength="144" x="132.5" y="186.7676">在GBPC0模型之上引入了</text><text fill="#000000" font-family="sans-serif" font-size="13" font-weight="bold" lengthAdjust="spacing" textLength="52" x="280.5" y="186.7676">继承关系</text><text fill="#000000" font-family="sans-serif" font-size="13" lengthAdjust="spacing" textLength="26" x="332.5" y="186.7676">，形</text><text fill="#000000" font-family="sans-serif" font-size="13" lengthAdjust="spacing" textLength="26" x="132.5" y="202.0781">成了</text><text fill="#000000" font-family="sans-serif" font-size="13" font-weight="bold" lengthAdjust="spacing" textLength="78" x="158.5" y="202.0781">分组分层模型</text><text fill="#000000" font-family="sans-serif" font-size="13" lengthAdjust="spacing" textLength="65" x="236.5" y="202.0781">，继承分为</text><text fill="#000000" font-family="sans-serif" font-size="13" font-weight="bold" lengthAdjust="spacing" textLength="52" x="301.5" y="202.0781">一般继承</text><text fill="#000000" font-family="sans-serif" font-size="13" lengthAdjust="spacing" textLength="13" x="132.5" y="217.3887">和</text><text fill="#000000" font-family="sans-serif" font-size="13" font-weight="bold" lengthAdjust="spacing" textLength="52" x="145.5" y="217.3887">受限继承</text><!--MD5=[95b33b8daf79487096e444ecf4f80e74]
link executer to group--><path codeLine="18" d="M105.46,68.1992 C119.96,68.1992 135.55,68.1992 149.69,68.1992 " fill="none" id="executer-group" style="stroke:#A80036;stroke-width:1.0;"/><line style="stroke:#A80036;stroke-width:1.0;" x1="149.82" x2="157.82" y1="68.1992" y2="62.1992"/><line style="stroke:#A80036;stroke-width:1.0;" x1="149.82" x2="157.82" y1="68.1992" y2="74.1992"/><line style="stroke:#A80036;stroke-width:1.0;" x1="149.82" x2="157.82" y1="68.1992" y2="68.1992"/><ellipse cx="143.82" cy="68.1992" rx="4" ry="4" style="stroke:#A80036;stroke-width:1.0;fill:none;"/><line style="stroke:#A80036;stroke-width:1.0;fill:none;" x1="105.08" x2="97.08" y1="68.1992" y2="74.1992"/><line style="stroke:#A80036;stroke-width:1.0;fill:none;" x1="105.08" x2="97.08" y1="68.1992" y2="62.1992"/><line style="stroke:#A80036;stroke-width:1.0;fill:none;" x1="105.08" x2="97.08" y1="68.1992" y2="68.1992"/><ellipse cx="111.08" cy="68.1992" rx="4" ry="4" style="stroke:#A80036;stroke-width:1.0;fill:none;"/><text fill="#000000" font-family="sans-serif" font-size="13" lengthAdjust="spacing" textLength="0" x="139.5" y="61.7676"/><!--MD5=[433e5478676985226b618405c5adc4af]
link group to policy--><path codeLine="19" d="M244.37,68.1992 C262.6,68.1992 283.63,68.1992 302.77,68.1992 " fill="none" id="group-policy" style="stroke:#A80036;stroke-width:1.0;"/><line style="stroke:#A80036;stroke-width:1.0;" x1="302.84" x2="310.84" y1="68.1992" y2="62.1992"/><line style="stroke:#A80036;stroke-width:1.0;" x1="302.84" x2="310.84" y1="68.1992" y2="74.1992"/><line style="stroke:#A80036;stroke-width:1.0;" x1="302.84" x2="310.84" y1="68.1992" y2="68.1992"/><ellipse cx="296.84" cy="68.1992" rx="4" ry="4" style="stroke:#A80036;stroke-width:1.0;fill:none;"/><line style="stroke:#A80036;stroke-width:1.0;fill:none;" x1="244.28" x2="236.28" y1="68.1992" y2="74.1992"/><line style="stroke:#A80036;stroke-width:1.0;fill:none;" x1="244.28" x2="236.28" y1="68.1992" y2="62.1992"/><line style="stroke:#A80036;stroke-width:1.0;fill:none;" x1="244.28" x2="236.28" y1="68.1992" y2="68.1992"/><ellipse cx="250.28" cy="68.1992" rx="4" ry="4" style="stroke:#A80036;stroke-width:1.0;fill:none;"/><text fill="#000000" font-family="sans-serif" font-size="13" lengthAdjust="spacing" textLength="0" x="283.5" y="61.7676"/><!--MD5=[b9d34f4a969dcc6249690a4efcc5f541]
link executer to session--><path codeLine="20" d="M52,102.3792 C52,120.9392 52,144.0092 52,162.6292 " fill="none" id="executer-session" style="stroke:#A80036;stroke-width:1.0;"/><line style="stroke:#A80036;stroke-width:1.0;" x1="56" x2="48" y1="165.7892" y2="165.7892"/><line style="stroke:#A80036;stroke-width:1.0;" x1="56" x2="48" y1="162.7892" y2="162.7892"/><line style="stroke:#A80036;stroke-width:1.0;" x1="52" x2="52" y1="161.7892" y2="169.7892"/><line style="stroke:#A80036;stroke-width:1.0;" x1="48" x2="56" y1="99.2092" y2="99.2092"/><line style="stroke:#A80036;stroke-width:1.0;" x1="48" x2="56" y1="102.2092" y2="102.2092"/><line style="stroke:#A80036;stroke-width:1.0;" x1="52" x2="52" y1="103.2092" y2="95.2092"/><!--MD5=[da61e6ac2288df8455deabc51ce275bd]
link group to session--><path codeLine="21" d="M160.99,100.7392 C138.81,120.1692 110.47,144.9892 88.25,164.4492 " fill="none" id="group-session" style="stroke:#A80036;stroke-width:1.0;"/><line style="stroke:#A80036;stroke-width:1.0;" x1="87.7942" x2="82.5282" y1="170.1674" y2="164.145"/><line style="stroke:#A80036;stroke-width:1.0;" x1="90.0526" x2="84.7866" y1="168.1926" y2="162.1703"/><line style="stroke:#A80036;stroke-width:1.0;" x1="88.1724" x2="82.15" y1="164.5232" y2="169.7892"/><line style="stroke:#A80036;stroke-width:1.0;" x1="161.2938" x2="162.0369" y1="100.4823" y2="95.2092"/><line style="stroke:#A80036;stroke-width:1.0;" x1="161.2938" x2="172.5831" y1="100.4823" y2="95.2092"/><line style="stroke:#A80036;stroke-width:1.0;" x1="161.2938" x2="167.31" y1="100.4823" y2="95.2092"/><!--MD5=[6762bdf92ab255004527e8a7e22ad036]
link group to group--><path codeLine="22" d="M249.46,55.3292 C261.85,56.3692 271,60.6592 271,68.1992 C271,75.7392 248.21,81.0656 248.21,81.0656 " fill="none" id="group-group" style="stroke:#A80036;stroke-width:1.0;"/><polygon fill="#FFFFFF" points="236.21,81.0392,242.2012,85.0524,248.21,81.0656,242.2188,77.0524,236.21,81.0392" style="stroke:#A80036;stroke-width:1.0;"/><line style="stroke:#A80036;stroke-width:1.0;" x1="240.2188" x2="240.2012" y1="59.3504" y2="51.3504"/><line style="stroke:#A80036;stroke-width:1.0;" x1="243.2188" x2="243.2012" y1="59.3438" y2="51.3438"/><line style="stroke:#A80036;stroke-width:1.0;" x1="244.21" x2="236.21" y1="55.3416" y2="55.3592"/><!--MD5=[e70cfeceaf2a1250a1a4e4b84f1e8e1b]
@startuml GBPC1
title GBPC-1 分层模型
hide circle
'skinparam linetype ortho
entity " <<执行者>> \nExecuter" as executer {
}

entity " <<分组>> \nGroup" as group {
}

entity " <<策略>> \nPolicy" as policy {
  *<<元数据>> meta
  *<<操作>> ops
}

entity " <<会话>> \nSession" as session {
}

executer }o-right-o{group:"      "
group }o-right-o{policy:"     "
executer ||- -|| session
group }- -|| session
group ||- -o group
note bottom of group
在GBPC0模型之上引入了 **继承关系**，形
成了**分组分层模型**，继承分为**一般继承**
和**受限继承**
end note
@enduml

@startuml GBPC1
title GBPC-1 分层模型
hide circle
entity " <<执行者>> \nExecuter" as executer {
}

entity " <<分组>> \nGroup" as group {
}

entity " <<策略>> \nPolicy" as policy {
  *<<元数据>> meta
  *<<操作>> ops
}

entity " <<会话>> \nSession" as session {
}

executer }o-right-o{group:"      "
group }o-right-o{policy:"     "
executer ||- -|| session
group }- -|| session
group ||- -o group
note bottom of group
在GBPC0模型之上引入了 **继承关系**，形
成了**分组分层模型**，继承分为**一般继承**
和**受限继承**
end note
@enduml

PlantUML version 1.2022.0(Wed Jan 12 00:16:42 CST 2022)
(GPL source distribution)
Java Runtime: OpenJDK Runtime Environment
JVM: OpenJDK 64-Bit Server VM
Default Encoding: UTF-8
Language: zh
Country: CN
--></g></svg>