<?xml version="1.0" encoding="UTF-8" standalone="no"?>
<svg xmlns="http://www.w3.org/2000/svg"
     contentScriptType="application/ecmascript" contentStyleType="text/css" height="648px" preserveAspectRatio="none"
     style="width:621px;height:537px;background:#FFFFFF;" version="1.1" viewBox="0 0 621 537" width="784px"
     zoomAndPan="magnify">
    <defs>
        <filter height="300%" id="f1dn1fjl9bxzqg" width="300%" x="-1" y="-1">
            <feGaussianBlur result="blurOut" stdDeviation="2.0"/>
            <feColorMatrix in="blurOut" result="blurOut2" type="matrix"
                           values="0 0 0 0 0 0 0 0 0 0 0 0 0 0 0 0 0 0 .4 0"/>
            <feOffset dx="4.0" dy="4.0" in="blurOut2" result="blurOut3"/>
            <feBlend in="SourceGraphic" in2="blurOut3" mode="normal"/>
        </filter>
    </defs>
    <g>
        <text fill="#000000" font-family="sans-serif" font-size="18" lengthAdjust="spacing" textLength="163" x="221.75"
              y="17.4023">GBPC-完整应用模型
        </text><!--MD5=[dad1940d6bc530b36fdf440583587a83]
class executor-->
        <rect codeLine="3" fill="#FEFECE" filter="url(#f1dn1fjl9bxzqg)" height="73.9102" id="executor"
              style="stroke:#A80036;stroke-width:1.5;" width="107" x="66" y="314.1992"/>
        <ellipse cx="98.55" cy="330.1992" fill="#ADD1B2" rx="11" ry="11" style="stroke:#A80036;stroke-width:1.0;"/>
        <path d="M102.1643,336.6992 L94.4445,336.6992 L94.4445,324.3062 L102.1643,324.3062 L102.1643,326.4644 L96.8933,326.4644 L96.8933,329.1372 L101.6662,329.1372 L101.6662,331.2954 L96.8933,331.2954 L96.8933,334.541 L102.1643,334.541 Z "
              fill="#000000"/>
        <text fill="#000000" font-family="sans-serif" font-size="12" font-weight="bold" lengthAdjust="spacing"
              textLength="36" x="116.45" y="334.7344">执行者
        </text>
        <line style="stroke:#A80036;stroke-width:1.5;" x1="67" x2="172" y1="346.1992" y2="346.1992"/>
        <ellipse cx="77" cy="357.1992" fill="#000000" rx="3" ry="3" style="stroke:#000000;stroke-width:1.0;"/>
        <text fill="#000000" font-family="sans-serif" font-size="11" lengthAdjust="spacing" textLength="81" x="86"
              y="360.834">执行者ID &lt;PK&gt;
        </text>
        <text fill="#000000" font-family="sans-serif" font-size="11" lengthAdjust="spacing" textLength="44" x="86"
              y="373.7891">执行者名
        </text>
        <line style="stroke:#A80036;stroke-width:1.5;" x1="67" x2="172" y1="380.1094" y2="380.1094"/><!--MD5=[f14ebbc9a869c9310439242fe530f54e]
class grouper-->
        <rect codeLine="8" fill="#FEFECE" filter="url(#f1dn1fjl9bxzqg)" height="73.9102" id="grouper"
              style="stroke:#A80036;stroke-width:1.5;" width="96" x="208.5" y="314.1992"/>
        <ellipse cx="241.5" cy="330.1992" fill="#ADD1B2" rx="11" ry="11" style="stroke:#A80036;stroke-width:1.0;"/>
        <path d="M245.1143,336.6992 L237.3945,336.6992 L237.3945,324.3062 L245.1143,324.3062 L245.1143,326.4644 L239.8433,326.4644 L239.8433,329.1372 L244.6162,329.1372 L244.6162,331.2954 L239.8433,331.2954 L239.8433,334.541 L245.1143,334.541 Z "
              fill="#000000"/>
        <text fill="#000000" font-family="sans-serif" font-size="12" font-weight="bold" lengthAdjust="spacing"
              textLength="24" x="259.5" y="334.7344">分组
        </text>
        <line style="stroke:#A80036;stroke-width:1.5;" x1="209.5" x2="303.5" y1="346.1992" y2="346.1992"/>
        <ellipse cx="219.5" cy="357.1992" fill="#000000" rx="3" ry="3" style="stroke:#000000;stroke-width:1.0;"/>
        <text fill="#000000" font-family="sans-serif" font-size="11" lengthAdjust="spacing" textLength="70" x="228.5"
              y="360.834">分组ID &lt;PK&gt;
        </text>
        <text fill="#000000" font-family="sans-serif" font-size="11" lengthAdjust="spacing" textLength="33" x="228.5"
              y="373.7891">分组名
        </text>
        <line style="stroke:#A80036;stroke-width:1.5;" x1="209.5" x2="303.5" y1="380.1094" y2="380.1094"/><!--MD5=[3105e977017215c62956ee5c147722ae]
class policy-->
        <rect codeLine="13" fill="#FEFECE" filter="url(#f1dn1fjl9bxzqg)" height="73.9102" id="policy"
              style="stroke:#A80036;stroke-width:1.5;" width="96" x="339.5" y="314.1992"/>
        <ellipse cx="372.5" cy="330.1992" fill="#ADD1B2" rx="11" ry="11" style="stroke:#A80036;stroke-width:1.0;"/>
        <path d="M376.1143,336.6992 L368.3945,336.6992 L368.3945,324.3062 L376.1143,324.3062 L376.1143,326.4644 L370.8433,326.4644 L370.8433,329.1372 L375.6162,329.1372 L375.6162,331.2954 L370.8433,331.2954 L370.8433,334.541 L376.1143,334.541 Z "
              fill="#000000"/>
        <text fill="#000000" font-family="sans-serif" font-size="12" font-weight="bold" lengthAdjust="spacing"
              textLength="24" x="390.5" y="334.7344">策略
        </text>
        <line style="stroke:#A80036;stroke-width:1.5;" x1="340.5" x2="434.5" y1="346.1992" y2="346.1992"/>
        <ellipse cx="350.5" cy="357.1992" fill="#000000" rx="3" ry="3" style="stroke:#000000;stroke-width:1.0;"/>
        <text fill="#000000" font-family="sans-serif" font-size="11" lengthAdjust="spacing" textLength="70" x="359.5"
              y="360.834">策略ID &lt;PK&gt;
        </text>
        <text fill="#000000" font-family="sans-serif" font-size="11" lengthAdjust="spacing" textLength="44" x="359.5"
              y="373.7891">策略类型
        </text>
        <line style="stroke:#A80036;stroke-width:1.5;" x1="340.5" x2="434.5" y1="380.1094" y2="380.1094"/><!--MD5=[ab11aec9697a155806c72fa29b42d191]
class item-->
        <rect codeLine="18" fill="#FEDE35" filter="url(#f1dn1fjl9bxzqg)" height="73.9102" id="item"
              style="stroke:#A80036;stroke-width:1.5;" width="96" x="363.5" y="28.1992"/>
        <ellipse cx="391.1" cy="44.1992" fill="#ADD1B2" rx="11" ry="11" style="stroke:#A80036;stroke-width:1.0;"/>
        <path d="M394.7143,50.6992 L386.9945,50.6992 L386.9945,38.3062 L394.7143,38.3062 L394.7143,40.4644 L389.4433,40.4644 L389.4433,43.1372 L394.2162,43.1372 L394.2162,45.2954 L389.4433,45.2954 L389.4433,48.541 L394.7143,48.541 Z "
              fill="#000000"/>
        <text fill="#000000" font-family="sans-serif" font-size="12" lengthAdjust="spacing" textLength="36" x="407.9"
              y="48.7344">策略项
        </text>
        <line style="stroke:#A80036;stroke-width:1.5;" x1="364.5" x2="458.5" y1="60.1992" y2="60.1992"/>
        <ellipse cx="374.5" cy="71.1992" fill="#000000" rx="3" ry="3" style="stroke:#000000;stroke-width:1.0;"/>
        <text fill="#000000" font-family="sans-serif" font-size="11" lengthAdjust="spacing" textLength="70" x="383.5"
              y="74.834">操作ID &lt;PK&gt;
        </text>
        <text fill="#000000" font-family="sans-serif" font-size="11" lengthAdjust="spacing" textLength="44" x="383.5"
              y="87.7891">策略内容
        </text>
        <line style="stroke:#A80036;stroke-width:1.5;" x1="364.5" x2="458.5" y1="94.1094" y2="94.1094"/><!--MD5=[0c6853f4bcb6f574d7a7b345865fbf6c]
class executorgroup-->
        <rect codeLine="23" fill="#FEDE35" filter="url(#f1dn1fjl9bxzqg)" height="73.9102" id="executorgroup"
              style="stroke:#A80036;stroke-width:1.5;" width="118" x="59.5" y="28.1992"/>
        <ellipse cx="91.6" cy="44.1992" fill="#ADD1B2" rx="11" ry="11" style="stroke:#A80036;stroke-width:1.0;"/>
        <path d="M95.2143,50.6992 L87.4945,50.6992 L87.4945,38.3062 L95.2143,38.3062 L95.2143,40.4644 L89.9433,40.4644 L89.9433,43.1372 L94.7162,43.1372 L94.7162,45.2954 L89.9433,45.2954 L89.9433,48.541 L95.2143,48.541 Z "
              fill="#000000"/>
        <text fill="#000000" font-family="sans-serif" font-size="12" lengthAdjust="spacing" textLength="48" x="109.4"
              y="48.7344">执行者组
        </text>
        <line style="stroke:#A80036;stroke-width:1.5;" x1="60.5" x2="176.5" y1="60.1992" y2="60.1992"/>
        <ellipse cx="70.5" cy="71.1992" fill="#000000" rx="3" ry="3" style="stroke:#000000;stroke-width:1.0;"/>
        <text fill="#000000" font-family="sans-serif" font-size="11" lengthAdjust="spacing" textLength="92" x="79.5"
              y="74.834">执行者组ID &lt;PK&gt;
        </text>
        <text fill="#000000" font-family="sans-serif" font-size="11" lengthAdjust="spacing" textLength="55" x="79.5"
              y="87.7891">执行者组名
        </text>
        <line style="stroke:#A80036;stroke-width:1.5;" x1="60.5" x2="176.5" y1="94.1094" y2="94.1094"/>
        <path d="M213,44.6992 L213,61.1992 L177.53,65.1992 L213,69.1992 L213,85.3203 A0,0 0 0 0 213,85.3203 L316,85.3203 A0,0 0 0 0 316,85.3203 L316,54.6992 L306,44.6992 L213,44.6992 A0,0 0 0 0 213,44.6992 "
              fill="#FBFB77" filter="url(#f1dn1fjl9bxzqg)" style="stroke:#A80036;stroke-width:1.0;"/>
        <path d="M306,44.6992 L306,54.6992 L316,54.6992 L306,44.6992 " fill="#FBFB77"
              style="stroke:#A80036;stroke-width:1.0;"/>
        <text fill="#000000" font-family="sans-serif" font-size="13" lengthAdjust="spacing" textLength="82" x="219"
              y="62.2676">如:部门、公司
        </text>
        <text fill="#000000" font-family="sans-serif" font-size="13" lengthAdjust="spacing" textLength="78" x="219"
              y="77.5781">或关联分组等
        </text><!--MD5=[67f565c557393c596d6fe088b28eed23]
class exgs-->
        <rect codeLine="33" fill="#99FF99" filter="url(#f1dn1fjl9bxzqg)" height="73.9102" id="exgs"
              style="stroke:#A80036;stroke-width:1.5;" width="135" x="189" y="179.1992"/>
        <ellipse cx="204" cy="195.1992" fill="#ADD1B2" rx="11" ry="11" style="stroke:#A80036;stroke-width:1.0;"/>
        <path d="M207.6143,201.6992 L199.8945,201.6992 L199.8945,189.3062 L207.6143,189.3062 L207.6143,191.4644 L202.3433,191.4644 L202.3433,194.1372 L207.1162,194.1372 L207.1162,196.2954 L202.3433,196.2954 L202.3433,199.541 L207.6143,199.541 Z "
              fill="#000000"/>
        <text fill="#000000" font-family="sans-serif" font-size="12" lengthAdjust="spacing" textLength="103" x="218"
              y="199.7344">执行者组-分组关联
        </text>
        <line style="stroke:#A80036;stroke-width:1.5;" x1="190" x2="323" y1="211.1992" y2="211.1992"/>
        <ellipse cx="200" cy="222.1992" fill="#000000" rx="3" ry="3" style="stroke:#000000;stroke-width:1.0;"/>
        <text fill="#000000" font-family="sans-serif" font-size="11" lengthAdjust="spacing" textLength="89" x="209"
              y="225.834">执行者组ID &lt;FK&gt;
        </text>
        <ellipse cx="200" cy="235.1543" fill="#000000" rx="3" ry="3" style="stroke:#000000;stroke-width:1.0;"/>
        <text fill="#000000" font-family="sans-serif" font-size="11" lengthAdjust="spacing" textLength="67" x="209"
              y="238.7891">分组ID &lt;FK&gt;
        </text>
        <line style="stroke:#A80036;stroke-width:1.5;" x1="190" x2="323" y1="245.1094" y2="245.1094"/><!--MD5=[33ca46ab90222901fa40e724eeeb907d]
class egex-->
        <rect codeLine="39" fill="#99FF99" filter="url(#f1dn1fjl9bxzqg)" height="73.9102" id="egex"
              style="stroke:#A80036;stroke-width:1.5;" width="147" x="7" y="179.1992"/>
        <ellipse cx="22" cy="195.1992" fill="#ADD1B2" rx="11" ry="11" style="stroke:#A80036;stroke-width:1.0;"/>
        <path d="M25.6143,201.6992 L17.8945,201.6992 L17.8945,189.3062 L25.6143,189.3062 L25.6143,191.4644 L20.3433,191.4644 L20.3433,194.1372 L25.1162,194.1372 L25.1162,196.2954 L20.3433,196.2954 L20.3433,199.541 L25.6143,199.541 Z "
              fill="#000000"/>
        <text fill="#000000" font-family="sans-serif" font-size="12" lengthAdjust="spacing" textLength="115" x="36"
              y="199.7344">执行者组-执行者关联
        </text>
        <line style="stroke:#A80036;stroke-width:1.5;" x1="8" x2="153" y1="211.1992" y2="211.1992"/>
        <ellipse cx="18" cy="222.1992" fill="#000000" rx="3" ry="3" style="stroke:#000000;stroke-width:1.0;"/>
        <text fill="#000000" font-family="sans-serif" font-size="11" lengthAdjust="spacing" textLength="89" x="27"
              y="225.834">执行者组ID &lt;FK&gt;
        </text>
        <ellipse cx="18" cy="235.1543" fill="#000000" rx="3" ry="3" style="stroke:#000000;stroke-width:1.0;"/>
        <text fill="#000000" font-family="sans-serif" font-size="11" lengthAdjust="spacing" textLength="78" x="27"
              y="238.7891">执行者ID &lt;FK&gt;
        </text>
        <line style="stroke:#A80036;stroke-width:1.5;" x1="8" x2="153" y1="245.1094" y2="245.1094"/><!--MD5=[96e0c63173b75f286bb10aa7abfc752d]
class executor_grouper-->
        <rect codeLine="44" fill="#99FF99" filter="url(#f1dn1fjl9bxzqg)" height="73.9102" id="executor_grouper"
              style="stroke:#A80036;stroke-width:1.5;" width="123" x="101" y="449.1992"/>
        <ellipse cx="116" cy="465.1992" fill="#ADD1B2" rx="11" ry="11" style="stroke:#A80036;stroke-width:1.0;"/>
        <path d="M119.6143,471.6992 L111.8945,471.6992 L111.8945,459.3062 L119.6143,459.3062 L119.6143,461.4644 L114.3433,461.4644 L114.3433,464.1372 L119.1162,464.1372 L119.1162,466.2954 L114.3433,466.2954 L114.3433,469.541 L119.6143,469.541 Z "
              fill="#000000"/>
        <text fill="#000000" font-family="sans-serif" font-size="12" lengthAdjust="spacing" textLength="91" x="130"
              y="469.7344">执行者-分组关联
        </text>
        <line style="stroke:#A80036;stroke-width:1.5;" x1="102" x2="223" y1="481.1992" y2="481.1992"/>
        <ellipse cx="112" cy="492.1992" fill="#000000" rx="3" ry="3" style="stroke:#000000;stroke-width:1.0;"/>
        <text fill="#000000" font-family="sans-serif" font-size="11" lengthAdjust="spacing" textLength="78" x="121"
              y="495.834">执行者ID &lt;FK&gt;
        </text>
        <ellipse cx="112" cy="505.1543" fill="#000000" rx="3" ry="3" style="stroke:#000000;stroke-width:1.0;"/>
        <text fill="#000000" font-family="sans-serif" font-size="11" lengthAdjust="spacing" textLength="67" x="121"
              y="508.7891">分组ID &lt;FK&gt;
        </text>
        <line style="stroke:#A80036;stroke-width:1.5;" x1="102" x2="223" y1="515.1094" y2="515.1094"/><!--MD5=[85e5d692b3be079176057338d832e6e5]
class grouper_policy-->
        <rect codeLine="49" fill="#99FF99" filter="url(#f1dn1fjl9bxzqg)" height="73.9102" id="grouper_policy"
              style="stroke:#A80036;stroke-width:1.5;" width="111" x="288" y="449.1992"/>
        <ellipse cx="303" cy="465.1992" fill="#ADD1B2" rx="11" ry="11" style="stroke:#A80036;stroke-width:1.0;"/>
        <path d="M306.6143,471.6992 L298.8945,471.6992 L298.8945,459.3062 L306.6143,459.3062 L306.6143,461.4644 L301.3433,461.4644 L301.3433,464.1372 L306.1162,464.1372 L306.1162,466.2954 L301.3433,466.2954 L301.3433,469.541 L306.6143,469.541 Z "
              fill="#000000"/>
        <text fill="#000000" font-family="sans-serif" font-size="12" lengthAdjust="spacing" textLength="79" x="317"
              y="469.7344">分组-策略关联
        </text>
        <line style="stroke:#A80036;stroke-width:1.5;" x1="289" x2="398" y1="481.1992" y2="481.1992"/>
        <ellipse cx="299" cy="492.1992" fill="#000000" rx="3" ry="3" style="stroke:#000000;stroke-width:1.0;"/>
        <text fill="#000000" font-family="sans-serif" font-size="11" lengthAdjust="spacing" textLength="67" x="308"
              y="495.834">分组ID &lt;FK&gt;
        </text>
        <ellipse cx="299" cy="505.1543" fill="#000000" rx="3" ry="3" style="stroke:#000000;stroke-width:1.0;"/>
        <text fill="#000000" font-family="sans-serif" font-size="11" lengthAdjust="spacing" textLength="67" x="308"
              y="508.7891">策略ID &lt;FK&gt;
        </text>
        <line style="stroke:#A80036;stroke-width:1.5;" x1="289" x2="398" y1="515.1094" y2="515.1094"/><!--MD5=[c176a2898aebc775e3df0d544aaf765c]
class policy_contrl-->
        <rect codeLine="54" fill="#70D4FF" filter="url(#f1dn1fjl9bxzqg)" height="48" id="policy_contrl"
              style="stroke:#A80036;stroke-width:1.5;" width="120" x="470.5" y="327.1992"/>
        <ellipse cx="485.5" cy="343.1992" fill="#ADD1B2" rx="11" ry="11" style="stroke:#A80036;stroke-width:1.0;"/>
        <path d="M489.1143,349.6992 L481.3945,349.6992 L481.3945,337.3062 L489.1143,337.3062 L489.1143,339.4644 L483.8433,339.4644 L483.8433,342.1372 L488.6162,342.1372 L488.6162,344.2954 L483.8433,344.2954 L483.8433,347.541 L489.1143,347.541 Z "
              fill="#000000"/>
        <text fill="#000000" font-family="sans-serif" font-size="12" lengthAdjust="spacing" textLength="88" x="499.5"
              y="347.7344">&lt;&lt;策略控制&gt;&gt;
        </text>
        <line style="stroke:#A80036;stroke-width:1.5;" x1="471.5" x2="589.5" y1="359.1992" y2="359.1992"/>
        <line style="stroke:#A80036;stroke-width:1.5;" x1="471.5" x2="589.5" y1="367.1992" y2="367.1992"/>
        <path d="M448.5,450.6992 L448.5,521.9414 A0,0 0 0 0 448.5,521.9414 L612.5,521.9414 A0,0 0 0 0 612.5,521.9414 L612.5,460.6992 L602.5,450.6992 L534.5,450.6992 L530.5,375.3692 L526.5,450.6992 L448.5,450.6992 A0,0 0 0 0 448.5,450.6992 "
              fill="#FBFB77" filter="url(#f1dn1fjl9bxzqg)" style="stroke:#A80036;stroke-width:1.0;"/>
        <path d="M602.5,450.6992 L602.5,460.6992 L612.5,460.6992 L602.5,450.6992 " fill="#FBFB77"
              style="stroke:#A80036;stroke-width:1.0;"/>
        <text fill="#000000" font-family="sans-serif" font-size="13" lengthAdjust="spacing" textLength="143" x="454.5"
              y="468.2676">包括执行者与特殊策略，
        </text>
        <text fill="#000000" font-family="sans-serif" font-size="13" lengthAdjust="spacing" textLength="130" x="454.5"
              y="483.5781">条件约束表，互斥规则
        </text>
        <text fill="#000000" font-family="sans-serif" font-size="13" lengthAdjust="spacing" textLength="130" x="454.5"
              y="498.8887">等，可根据业务需要进
        </text>
        <text fill="#000000" font-family="sans-serif" font-size="13" lengthAdjust="spacing" textLength="52" x="454.5"
              y="514.1992">行扩展。
        </text><!--MD5=[5572b986d842aac89556b608be7d4f63]
class item_policy-->
        <rect codeLine="64" fill="#99FF99" filter="url(#f1dn1fjl9bxzqg)" height="73.9102" id="item_policy"
              style="stroke:#A80036;stroke-width:1.5;" width="104" x="359.5" y="179.1992"/>
        <ellipse cx="379.9" cy="195.1992" fill="#ADD1B2" rx="11" ry="11" style="stroke:#A80036;stroke-width:1.0;"/>
        <path d="M383.5143,201.6992 L375.7945,201.6992 L375.7945,189.3062 L383.5143,189.3062 L383.5143,191.4644 L378.2433,191.4644 L378.2433,194.1372 L383.0162,194.1372 L383.0162,196.2954 L378.2433,196.2954 L378.2433,199.541 L383.5143,199.541 Z "
              fill="#000000"/>
        <text fill="#000000" font-family="sans-serif" font-size="12" lengthAdjust="spacing" textLength="60" x="395.1"
              y="199.7344">策略项关联
        </text>
        <line style="stroke:#A80036;stroke-width:1.5;" x1="360.5" x2="462.5" y1="211.1992" y2="211.1992"/>
        <ellipse cx="370.5" cy="222.1992" fill="#000000" rx="3" ry="3" style="stroke:#000000;stroke-width:1.0;"/>
        <text fill="#000000" font-family="sans-serif" font-size="11" lengthAdjust="spacing" textLength="67" x="379.5"
              y="225.834">策略ID &lt;FK&gt;
        </text>
        <ellipse cx="370.5" cy="235.1543" fill="#000000" rx="3" ry="3" style="stroke:#000000;stroke-width:1.0;"/>
        <text fill="#000000" font-family="sans-serif" font-size="11" lengthAdjust="spacing" textLength="78" x="379.5"
              y="238.7891">操作项ID &lt;FK&gt;
        </text>
        <line style="stroke:#A80036;stroke-width:1.5;" x1="360.5" x2="462.5" y1="245.1094" y2="245.1094"/><!--MD5=[f2af6a416fdf855eae3b3b1f5d4fe1db]
reverse link grouper to grouper_policy-->
        <path codeLine="69" d="M283.2,393.0092 C294.87,410.8492 308.44,431.6092 319.76,448.8992 " fill="none"
              id="grouper-backto-grouper_policy" style="stroke:#A80036;stroke-width:1.0;"/>
        <polygon fill="#A80036"
                 points="280.27,388.5392,281.8724,398.2568,283.017,392.717,288.5569,393.8616,280.27,388.5392"
                 style="stroke:#A80036;stroke-width:1.0;"/><!--MD5=[752f1b29f6de7855f4ffb0de7bff2493]
reverse link policy to grouper_policy-->
        <path codeLine="71" d="M373.85,393.4692 C367.98,411.1992 361.18,431.7492 355.51,448.8992 " fill="none"
              id="policy-backto-grouper_policy" style="stroke:#A80036;stroke-width:1.0;"/>
        <polygon fill="#A80036"
                 points="375.48,388.5392,368.8589,395.8304,373.9117,393.2869,376.4552,398.3397,375.48,388.5392"
                 style="stroke:#A80036;stroke-width:1.0;"/><!--MD5=[729edb7c9119fe688371bd849ac3a8e9]
reverse link executor to executor_grouper-->
        <path codeLine="73" d="M132.84,393.4692 C138.58,411.1992 145.22,431.7492 150.76,448.8992 " fill="none"
              id="executor-backto-executor_grouper" style="stroke:#A80036;stroke-width:1.0;"/>
        <polygon fill="#A80036"
                 points="131.25,388.5392,130.2217,398.3342,132.7925,393.2953,137.8314,395.8662,131.25,388.5392"
                 style="stroke:#A80036;stroke-width:1.0;"/><!--MD5=[0d5f89c3af1e7b8815cabe35f445e704]
reverse link grouper to executor_grouper-->
        <path codeLine="74" d="M227.66,393.0092 C215.05,410.8492 200.38,431.6092 188.15,448.8992 " fill="none"
              id="grouper-backto-executor_grouper" style="stroke:#A80036;stroke-width:1.0;"/>
        <polygon fill="#A80036"
                 points="230.81,388.5392,222.3506,393.5829,227.9255,392.6233,228.8851,398.1981,230.81,388.5392"
                 style="stroke:#A80036;stroke-width:1.0;"/><!--MD5=[d7bea3830eeaa6969b2a0bc3f82747f0]
reverse link executor to policy_contrl-->
        <path codeLine="76"
              d="M160.99,310.7492 C174.84,299.8092 191.08,289.4192 208,283.6992 C304,251.2692 339.5,252.7792 436,283.6992 C462.69,292.2492 488.25,311.4192 506.05,327.1492 "
              fill="none" id="executor-backto-policy_contrl" style="stroke:#A80036;stroke-width:1.0;"/>
        <polygon fill="#A80036"
                 points="156.77,314.1592,166.2831,311.6094,160.6576,311.0149,161.2521,305.3894,156.77,314.1592"
                 style="stroke:#A80036;stroke-width:1.0;"/><!--MD5=[5dda87777a371d13c58fe78e6fedcae6]
reverse link policy to policy_contrl-->
        <path codeLine="77" d="M440.71,351.1992 C450.61,351.1992 460.51,351.1992 470.41,351.1992 " fill="none"
              id="policy-backto-policy_contrl" style="stroke:#A80036;stroke-width:1.0;"/>
        <polygon fill="#A80036" points="435.54,351.1992,444.54,355.1992,440.54,351.1992,444.54,347.1992,435.54,351.1992"
                 style="stroke:#A80036;stroke-width:1.0;"/><!--MD5=[e01c45545c0204e8e4bd879188a39122]
reverse link grouper to policy_contrl-->
        <path codeLine="78"
              d="M294.77,310.7892 C307.66,299.8492 322.89,289.4492 339,283.6992 C379.6,269.2092 394.95,270.5392 436,283.6992 C462.69,292.2492 488.25,311.4192 506.05,327.1492 "
              fill="none" id="grouper-backto-policy_contrl" style="stroke:#A80036;stroke-width:1.0;"/>
        <polygon fill="#A80036"
                 points="290.85,314.1992,300.2635,311.3032,294.62,310.9148,295.0084,305.2713,290.85,314.1992"
                 style="stroke:#A80036;stroke-width:1.0;"/><!--MD5=[7cba65fd6035f716a7d9f89b11462cff]
link item_policy to policy-->
        <path codeLine="80" d="M404.94,253.5392 C401.85,270.6992 398.14,291.2492 394.94,308.9792 " fill="none"
              id="item_policy-to-policy" style="stroke:#A80036;stroke-width:1.0;"/>
        <polygon fill="#A80036"
                 points="394.05,313.8992,399.5829,305.7514,394.9369,308.9785,391.7098,304.3324,394.05,313.8992"
                 style="stroke:#A80036;stroke-width:1.0;"/><!--MD5=[924b3039d9ef6888f21171efa6e60b75]
reverse link item to item_policy-->
        <path codeLine="81" d="M411.5,107.2692 C411.5,129.7292 411.5,157.2892 411.5,178.9492 " fill="none"
              id="item-backto-item_policy" style="stroke:#A80036;stroke-width:1.0;"/>
        <polygon fill="#A80036" points="411.5,102.2692,407.5,111.2692,411.5,107.2692,415.5,111.2692,411.5,102.2692"
                 style="stroke:#A80036;stroke-width:1.0;"/>
        <text fill="#000000" font-family="sans-serif" font-size="13" lengthAdjust="spacing" textLength="52" x="412.5"
              y="145.7676">业务扩展
        </text><!--MD5=[1187e041b6562341aa9d9c39837a1cde]
link egex to executor-->
        <path codeLine="83" d="M91.16,253.5392 C96.19,270.6992 102.21,291.2492 107.41,308.9792 " fill="none"
              id="egex-to-executor" style="stroke:#A80036;stroke-width:1.0;"/>
        <polygon fill="#A80036"
                 points="108.86,313.8992,110.1532,304.1356,107.4469,309.1031,102.4794,306.3967,108.86,313.8992"
                 style="stroke:#A80036;stroke-width:1.0;"/><!--MD5=[90df80a310d0b6fbbb3d09367a912705]
reverse link executorgroup to egex-->
        <path codeLine="84" d="M108.03,107.2692 C102.3,129.7292 95.27,157.2892 89.75,178.9492 " fill="none"
              id="executorgroup-backto-egex" style="stroke:#A80036;stroke-width:1.0;"/>
        <polygon fill="#A80036"
                 points="109.3,102.2692,103.1883,109.9924,108.0571,107.1123,110.9372,111.981,109.3,102.2692"
                 style="stroke:#A80036;stroke-width:1.0;"/><!--MD5=[eb7a15f9966c87d9400c711329bd5964]
link exgs to grouper-->
        <path codeLine="86" d="M256.5,253.5392 C256.5,270.5492 256.5,290.8992 256.5,308.5192 " fill="none"
              id="exgs-to-grouper" style="stroke:#A80036;stroke-width:1.0;"/>
        <polygon fill="#A80036" points="256.5,313.8992,260.5,304.8992,256.5,308.8992,252.5,304.8992,256.5,313.8992"
                 style="stroke:#A80036;stroke-width:1.0;"/><!--MD5=[ce5ec76c4be36b289a9922c898cf716f]
reverse link executorgroup to exgs-->
        <path codeLine="87" d="M155.49,106.1392 C176.48,128.7992 202.53,156.9292 222.92,178.9492 " fill="none"
              id="executorgroup-backto-exgs" style="stroke:#A80036;stroke-width:1.0;"/>
        <polygon fill="#A80036"
                 points="151.91,102.2692,155.0904,111.5905,155.3073,105.9378,160.96,106.1547,151.91,102.2692"
                 style="stroke:#A80036;stroke-width:1.0;"/><!--MD5=[1125d7a529d01d91be2460e30ef14cef]
@startuml udcp-full
title GBPC-完整应用模型

entity "**执行者**" as executor {
  *执行者ID  <PK>
  执行者名
}

entity "**分组**" as grouper {
  *分组ID  <PK>
  分组名
}

entity "**策略**" as policy {
  *策略ID  <PK>
  策略类型
}

entity "策略项" as item #fede35 {
  *操作ID  <PK>
  策略内容
}

entity "执行者组" as executorgroup #fede35 {
  *执行者组ID  <PK>
  执行者组名
}
note right of executorgroup
如:部门、公司
或关联分组等
end note


entity "执行者组-分组关联" as exgs #99FF99 {
  *执行者组ID <FK>
  *分组ID <FK>
}


entity "执行者组-执行者关联" as egex #99FF99 {
  *执行者组ID <FK>
  *执行者ID <FK>
}

entity "执行者-分组关联" as executor_grouper #99FF99 {
  *执行者ID <FK>
  *分组ID <FK>
}

entity "分组-策略关联" as grouper_policy #99FF99 {
  *分组ID <FK>
  *策略ID <FK>
}

entity "<<策略控制>>" as policy_contrl #70d4ff {
}

note bottom of policy_contrl
包括执行者与特殊策略，
条件约束表，互斥规则
等，可根据业务需要进
行扩展。
end note

entity "策略项关联" as item_policy #99FF99 {
  *策略ID <FK>
  *操作项ID <FK>
}

grouper_policy -up-> grouper

grouper_policy -up-> policy

executor_grouper -up-> executor
executor_grouper -up-> grouper

policy_contrl -left-> executor
policy_contrl -left-> policy
policy_contrl -left-> grouper

item_policy - -> policy
item_policy -up-> item:业务扩展

egex - -> executor
egex -up-> executorgroup

exgs - -> grouper
exgs -up->executorgroup
@enduml

PlantUML version 1.2022.0(Wed Jan 12 00:16:42 CST 2022)
(GPL source distribution)
Java Runtime: OpenJDK Runtime Environment
JVM: OpenJDK 64-Bit Server VM
Default Encoding: UTF-8
Language: zh
Country: CN
-->
    </g>
</svg>