<?xml version="1.0" encoding="UTF-8" standalone="no"?><svg xmlns="http://www.w3.org/2000/svg" xmlns:xlink="http://www.w3.org/1999/xlink" contentScriptType="application/ecmascript" contentStyleType="text/css" height="308px" preserveAspectRatio="none" style="width:399px;height:237px;background:#FFFFFF;" version="1.1" viewBox="0 0 399 237" width="520px" zoomAndPan="magnify"><defs><filter height="300%" id="fn1vw11oqgcwf" width="300%" x="-1" y="-1"><feGaussianBlur result="blurOut" stdDeviation="2.0"/><feColorMatrix in="blurOut" result="blurOut2" type="matrix" values="0 0 0 0 0 0 0 0 0 0 0 0 0 0 0 0 0 0 .4 0"/><feOffset dx="4.0" dy="4.0" in="blurOut2" result="blurOut3"/><feBlend in="SourceGraphic" in2="blurOut3" mode="normal"/></filter></defs><g><text fill="#000000" font-family="sans-serif" font-size="18" lengthAdjust="spacing" textLength="144" x="121" y="17.4023">GBPC-0 基础模型</text><!--MD5=[dad1940d6bc530b36fdf440583587a83]
class executer--><rect codeLine="5" fill="#FEFECE" filter="url(#fn1vw11oqgcwf)" height="54.2656" id="executer" style="stroke:#A80036;stroke-width:1.5;" width="82" x="7" y="41.1992"/><text fill="#000000" font-family="sans-serif" font-size="12" lengthAdjust="spacing" textLength="76" x="10" y="57.8008">&lt;&lt;执行者&gt;&gt;</text><text fill="#000000" font-family="sans-serif" font-size="12" lengthAdjust="spacing" textLength="50" x="23" y="71.9336">Executer</text><line style="stroke:#A80036;stroke-width:1.5;" x1="8" x2="88" y1="79.4648" y2="79.4648"/><line style="stroke:#A80036;stroke-width:1.5;" x1="8" x2="88" y1="87.4648" y2="87.4648"/><!--MD5=[83a7e20887a0e66b3fb3b0edc8d801ef]
class group--><rect codeLine="8" fill="#FEFECE" filter="url(#fn1vw11oqgcwf)" height="54.2656" id="group" style="stroke:#A80036;stroke-width:1.5;" width="78" x="150" y="41.1992"/><text fill="#000000" font-family="sans-serif" font-size="12" lengthAdjust="spacing" textLength="64" x="157" y="57.8008">&lt;&lt;分组&gt;&gt;</text><text fill="#000000" font-family="sans-serif" font-size="12" lengthAdjust="spacing" textLength="36" x="171" y="71.9336">Group</text><line style="stroke:#A80036;stroke-width:1.5;" x1="151" x2="227" y1="79.4648" y2="79.4648"/><line style="stroke:#A80036;stroke-width:1.5;" x1="151" x2="227" y1="87.4648" y2="87.4648"/><!--MD5=[3105e977017215c62956ee5c147722ae]
class policy--><rect codeLine="11" fill="#FEFECE" filter="url(#fn1vw11oqgcwf)" height="80.1758" id="policy" style="stroke:#A80036;stroke-width:1.5;" width="100" x="285" y="28.1992"/><text fill="#000000" font-family="sans-serif" font-size="12" lengthAdjust="spacing" textLength="64" x="303" y="44.8008">&lt;&lt;策略&gt;&gt;</text><text fill="#000000" font-family="sans-serif" font-size="12" lengthAdjust="spacing" textLength="32" x="319" y="58.9336">Policy</text><line style="stroke:#A80036;stroke-width:1.5;" x1="286" x2="384" y1="66.4648" y2="66.4648"/><ellipse cx="296" cy="77.4648" fill="#000000" rx="3" ry="3" style="stroke:#000000;stroke-width:1.0;"/><text fill="#000000" font-family="sans-serif" font-size="11" lengthAdjust="spacing" textLength="74" x="305" y="81.0996">«元数据» meta</text><ellipse cx="296" cy="90.4199" fill="#000000" rx="3" ry="3" style="stroke:#000000;stroke-width:1.0;"/><text fill="#000000" font-family="sans-serif" font-size="11" lengthAdjust="spacing" textLength="57" x="305" y="94.0547">«操作» ops</text><line style="stroke:#A80036;stroke-width:1.5;" x1="286" x2="384" y1="100.375" y2="100.375"/><!--MD5=[d39b0e5acf37d349c49873ef54346d0c]
class session--><rect codeLine="16" fill="#FEFECE" filter="url(#fn1vw11oqgcwf)" height="54.2656" id="session" style="stroke:#A80036;stroke-width:1.5;" width="78" x="79" y="169.1992"/><text fill="#000000" font-family="sans-serif" font-size="12" lengthAdjust="spacing" textLength="64" x="86" y="185.8008">&lt;&lt;会话&gt;&gt;</text><text fill="#000000" font-family="sans-serif" font-size="12" lengthAdjust="spacing" textLength="42" x="97" y="199.9336">Session</text><line style="stroke:#A80036;stroke-width:1.5;" x1="80" x2="156" y1="207.4648" y2="207.4648"/><line style="stroke:#A80036;stroke-width:1.5;" x1="80" x2="156" y1="215.4648" y2="215.4648"/><!--MD5=[95b33b8daf79487096e444ecf4f80e74]
link executer to group--><path codeLine="19" d="M97.44,68.1992 C111.83,68.1992 127.51,68.1992 141.76,68.1992 " fill="none" id="executer-group" style="stroke:#A80036;stroke-width:1.0;"/><line style="stroke:#A80036;stroke-width:1.0;" x1="141.97" x2="149.97" y1="68.1992" y2="62.1992"/><line style="stroke:#A80036;stroke-width:1.0;" x1="141.97" x2="149.97" y1="68.1992" y2="74.1992"/><line style="stroke:#A80036;stroke-width:1.0;" x1="141.97" x2="149.97" y1="68.1992" y2="68.1992"/><ellipse cx="135.97" cy="68.1992" rx="4" ry="4" style="stroke:#A80036;stroke-width:1.0;fill:none;"/><line style="stroke:#A80036;stroke-width:1.0;fill:none;" x1="97.16" x2="89.16" y1="68.1992" y2="74.1992"/><line style="stroke:#A80036;stroke-width:1.0;fill:none;" x1="97.16" x2="89.16" y1="68.1992" y2="62.1992"/><line style="stroke:#A80036;stroke-width:1.0;fill:none;" x1="97.16" x2="89.16" y1="68.1992" y2="68.1992"/><ellipse cx="103.16" cy="68.1992" rx="4" ry="4" style="stroke:#A80036;stroke-width:1.0;fill:none;"/><text fill="#000000" font-family="sans-serif" font-size="13" lengthAdjust="spacing" textLength="0" x="131.5" y="61.7676"/><!--MD5=[433e5478676985226b618405c5adc4af]
link group to policy--><path codeLine="20" d="M236.5,68.1992 C249.29,68.1992 263.27,68.1992 276.57,68.1992 " fill="none" id="group-policy" style="stroke:#A80036;stroke-width:1.0;"/><line style="stroke:#A80036;stroke-width:1.0;" x1="276.75" x2="284.75" y1="68.1992" y2="62.1992"/><line style="stroke:#A80036;stroke-width:1.0;" x1="276.75" x2="284.75" y1="68.1992" y2="74.1992"/><line style="stroke:#A80036;stroke-width:1.0;" x1="276.75" x2="284.75" y1="68.1992" y2="68.1992"/><ellipse cx="270.75" cy="68.1992" rx="4" ry="4" style="stroke:#A80036;stroke-width:1.0;fill:none;"/><line style="stroke:#A80036;stroke-width:1.0;fill:none;" x1="236.13" x2="228.13" y1="68.1992" y2="74.1992"/><line style="stroke:#A80036;stroke-width:1.0;fill:none;" x1="236.13" x2="228.13" y1="68.1992" y2="62.1992"/><line style="stroke:#A80036;stroke-width:1.0;fill:none;" x1="236.13" x2="228.13" y1="68.1992" y2="68.1992"/><ellipse cx="242.13" cy="68.1992" rx="4" ry="4" style="stroke:#A80036;stroke-width:1.0;fill:none;"/><text fill="#000000" font-family="sans-serif" font-size="13" lengthAdjust="spacing" textLength="0" x="266.5" y="61.7676"/><!--MD5=[b9d34f4a969dcc6249690a4efcc5f541]
link executer to session--><path codeLine="21" d="M66.01,101.6092 C76.48,120.4592 89.62,144.1192 100.08,162.9392 " fill="none" id="executer-session" style="stroke:#A80036;stroke-width:1.0;"/><line style="stroke:#A80036;stroke-width:1.0;" x1="105.0673" x2="98.0717" y1="163.6909" y2="167.5719"/><line style="stroke:#A80036;stroke-width:1.0;" x1="103.6119" x2="96.6164" y1="161.0676" y2="164.9486"/><line style="stroke:#A80036;stroke-width:1.0;" x1="99.629" x2="103.51" y1="162.1337" y2="169.1292"/><line style="stroke:#A80036;stroke-width:1.0;" x1="60.9427" x2="67.9383" y1="100.7475" y2="96.8665"/><line style="stroke:#A80036;stroke-width:1.0;" x1="62.3981" x2="69.3936" y1="103.3708" y2="99.4898"/><line style="stroke:#A80036;stroke-width:1.0;" x1="66.381" x2="62.5" y1="102.3048" y2="95.3092"/><!--MD5=[da61e6ac2288df8455deabc51ce275bd]
link group to session--><path codeLine="22" d="M170.28,102.4292 C159.9,120.8392 147.05,143.6592 136.68,162.0492 " fill="none" id="group-session" style="stroke:#A80036;stroke-width:1.0;"/><line style="stroke:#A80036;stroke-width:1.0;" x1="138.1385" x2="131.169" y1="167.6082" y2="163.6807"/><line style="stroke:#A80036;stroke-width:1.0;" x1="139.6113" x2="132.6418" y1="164.9946" y2="161.0671"/><line style="stroke:#A80036;stroke-width:1.0;" x1="136.6175" x2="132.69" y1="162.1597" y2="169.1292"/><line style="stroke:#A80036;stroke-width:1.0;" x1="170.3625" x2="167.3204" y1="102.2788" y2="95.3092"/><line style="stroke:#A80036;stroke-width:1.0;" x1="170.3625" x2="181.2596" y1="102.2788" y2="95.3092"/><line style="stroke:#A80036;stroke-width:1.0;" x1="170.3625" x2="174.29" y1="102.2788" y2="95.3092"/><!--MD5=[f593a009e46eb2b046bac48ae2e15a0d]
@startuml GBPC0
title GBPC-0 基础模型
hide circle

'entity executer <<泛型>>
entity "<<执行者>>\nExecuter" as executer {
}

entity " <<分组>> \nGroup" as group {
}

entity " <<策略>> \nPolicy" as policy {
  *<<元数据>> meta
  *<<操作>> ops
}

entity " <<会话>> \nSession" as session {
}

executer }o-right-o{group:"      "
group }o-right-o{policy:"     "
executer ||- -|| session
group }- -|| session
@enduml

@startuml GBPC0
title GBPC-0 基础模型
hide circle

entity "<<执行者>>\nExecuter" as executer {
}

entity " <<分组>> \nGroup" as group {
}

entity " <<策略>> \nPolicy" as policy {
  *<<元数据>> meta
  *<<操作>> ops
}

entity " <<会话>> \nSession" as session {
}

executer }o-right-o{group:"      "
group }o-right-o{policy:"     "
executer ||- -|| session
group }- -|| session
@enduml

PlantUML version 1.2022.0(Wed Jan 12 00:16:42 CST 2022)
(GPL source distribution)
Java Runtime: OpenJDK Runtime Environment
JVM: OpenJDK 64-Bit Server VM
Default Encoding: UTF-8
Language: zh
Country: CN
--></g></svg>