<?xml version="1.0" encoding="UTF-8" standalone="no"?>
<svg xmlns="http://www.w3.org/2000/svg"
     contentScriptType="application/ecmascript" contentStyleType="text/css" height="448px" preserveAspectRatio="none"
     style="width:654px;height:353px;background:#FFFFFF;" version="1.1" viewBox="0 0 654 353" width="780px"
     zoomAndPan="magnify">
    <defs>
        <filter height="300%" id="flicg5h4m6z26" width="300%" x="-1" y="-1">
            <feGaussianBlur result="blurOut" stdDeviation="2.0"/>
            <feColorMatrix in="blurOut" result="blurOut2" type="matrix"
                           values="0 0 0 0 0 0 0 0 0 0 0 0 0 0 0 0 0 0 .4 0"/>
            <feOffset dx="4.0" dy="4.0" in="blurOut2" result="blurOut3"/>
            <feBlend in="SourceGraphic" in2="blurOut3" mode="normal"/>
        </filter>
    </defs>
    <g>
        <text fill="#000000" font-family="sans-serif" font-size="18" lengthAdjust="spacing" textLength="144" x="247.5"
              y="17.4023">GBPC-2 约束模型
        </text><!--MD5=[dad1940d6bc530b36fdf440583587a83]
class executor-->
        <rect codeLine="6" fill="#FEFECE" filter="url(#flicg5h4m6z26)" height="54.2656" id="executor"
              style="stroke:#A80036;stroke-width:1.5;" width="90" x="7" y="157.1992"/>
        <text fill="#000000" font-family="sans-serif" font-size="12" lengthAdjust="spacing" textLength="76" x="14"
              y="173.8008">&lt;&lt;执行者&gt;&gt;
        </text>
        <text fill="#000000" font-family="sans-serif" font-size="12" lengthAdjust="spacing" textLength="50" x="27"
              y="187.9336">Executor
        </text>
        <line style="stroke:#A80036;stroke-width:1.5;" x1="8" x2="96" y1="195.4648" y2="195.4648"/>
        <line style="stroke:#A80036;stroke-width:1.5;" x1="8" x2="96" y1="203.4648" y2="203.4648"/><!--MD5=[83a7e20887a0e66b3fb3b0edc8d801ef]
class group-->
        <rect codeLine="9" fill="#FEFECE" filter="url(#flicg5h4m6z26)" height="54.2656" id="group"
              style="stroke:#A80036;stroke-width:1.5;" width="78" x="178" y="157.1992"/>
        <text fill="#000000" font-family="sans-serif" font-size="12" lengthAdjust="spacing" textLength="64" x="185"
              y="173.8008">&lt;&lt;分组&gt;&gt;
        </text>
        <text fill="#000000" font-family="sans-serif" font-size="12" lengthAdjust="spacing" textLength="36" x="199"
              y="187.9336">Group
        </text>
        <line style="stroke:#A80036;stroke-width:1.5;" x1="179" x2="255" y1="195.4648" y2="195.4648"/>
        <line style="stroke:#A80036;stroke-width:1.5;" x1="179" x2="255" y1="203.4648" y2="203.4648"/><!--MD5=[3105e977017215c62956ee5c147722ae]
class policy-->
        <rect codeLine="12" fill="#FEFECE" filter="url(#flicg5h4m6z26)" height="80.1758" id="policy"
              style="stroke:#A80036;stroke-width:1.5;" width="100" x="333" y="144.1992"/>
        <text fill="#000000" font-family="sans-serif" font-size="12" lengthAdjust="spacing" textLength="64" x="351"
              y="160.8008">&lt;&lt;策略&gt;&gt;
        </text>
        <text fill="#000000" font-family="sans-serif" font-size="12" lengthAdjust="spacing" textLength="32" x="367"
              y="174.9336">Policy
        </text>
        <line style="stroke:#A80036;stroke-width:1.5;" x1="334" x2="432" y1="182.4648" y2="182.4648"/>
        <ellipse cx="344" cy="193.4648" fill="#000000" rx="3" ry="3" style="stroke:#000000;stroke-width:1.0;"/>
        <text fill="#000000" font-family="sans-serif" font-size="11" lengthAdjust="spacing" textLength="74" x="353"
              y="197.0996">«元数据» meta
        </text>
        <ellipse cx="344" cy="206.4199" fill="#000000" rx="3" ry="3" style="stroke:#000000;stroke-width:1.0;"/>
        <text fill="#000000" font-family="sans-serif" font-size="11" lengthAdjust="spacing" textLength="57" x="353"
              y="210.0547">«操作» ops
        </text>
        <line style="stroke:#A80036;stroke-width:1.5;" x1="334" x2="432" y1="216.375" y2="216.375"/><!--MD5=[d39b0e5acf37d349c49873ef54346d0c]
class session-->
        <rect codeLine="17" fill="#FEFECE" filter="url(#flicg5h4m6z26)" height="54.2656" id="session"
              style="stroke:#A80036;stroke-width:1.5;" width="78" x="13" y="285.1992"/>
        <text fill="#000000" font-family="sans-serif" font-size="12" lengthAdjust="spacing" textLength="64" x="20"
              y="301.8008">&lt;&lt;会话&gt;&gt;
        </text>
        <text fill="#000000" font-family="sans-serif" font-size="12" lengthAdjust="spacing" textLength="42" x="31"
              y="315.9336">Session
        </text>
        <line style="stroke:#A80036;stroke-width:1.5;" x1="14" x2="90" y1="323.4648" y2="323.4648"/>
        <line style="stroke:#A80036;stroke-width:1.5;" x1="14" x2="90" y1="331.4648" y2="331.4648"/><!--MD5=[4da45f120b6b49903800f5dc5d31f72a]
class ssd-->
        <rect codeLine="19" fill="#70D4FF" filter="url(#flicg5h4m6z26)" height="54.2656" id="ssd"
              style="stroke:#A80036;stroke-width:1.5;" width="126" x="71" y="28.1992"/>
        <text fill="#000000" font-family="sans-serif" font-size="12" lengthAdjust="spacing" textLength="112" x="78"
              y="44.8008">&lt;&lt;静态职责分离&gt;&gt;
        </text>
        <text fill="#000000" font-family="sans-serif" font-size="12" lengthAdjust="spacing" textLength="21" x="123.5"
              y="58.9336">SSD
        </text>
        <line style="stroke:#A80036;stroke-width:1.5;" x1="72" x2="196" y1="66.4648" y2="66.4648"/>
        <line style="stroke:#A80036;stroke-width:1.5;" x1="72" x2="196" y1="74.4648" y2="74.4648"/><!--MD5=[0d8b76dac838dafcd862ce2b139ded14]
class dsd-->
        <rect codeLine="21" fill="#FD953B" filter="url(#flicg5h4m6z26)" height="54.2656" id="dsd"
              style="stroke:#A80036;stroke-width:1.5;" width="126" x="216" y="285.1992"/>
        <text fill="#000000" font-family="sans-serif" font-size="12" lengthAdjust="spacing" textLength="112" x="223"
              y="301.8008">&lt;&lt;动态职责分离&gt;&gt;
        </text>
        <text fill="#000000" font-family="sans-serif" font-size="12" lengthAdjust="spacing" textLength="24" x="267"
              y="315.9336">DSD
        </text>
        <line style="stroke:#A80036;stroke-width:1.5;" x1="217" x2="341" y1="323.4648" y2="323.4648"/>
        <line style="stroke:#A80036;stroke-width:1.5;" x1="217" x2="341" y1="331.4648" y2="331.4648"/>
        <path d="M232,27.1992 L232,51.1992 L197.25,55.1992 L232,59.1992 L232,83.1309 A0,0 0 0 0 232,83.1309 L550,83.1309 A0,0 0 0 0 550,83.1309 L550,37.1992 L540,27.1992 L232,27.1992 A0,0 0 0 0 232,27.1992 "
              fill="#FBFB77" filter="url(#flicg5h4m6z26)" style="stroke:#A80036;stroke-width:1.0;"/>
        <path d="M540,27.1992 L540,37.1992 L550,37.1992 L540,27.1992 " fill="#FBFB77"
              style="stroke:#A80036;stroke-width:1.0;"/>
        <text fill="#000000" font-family="sans-serif" font-size="13" lengthAdjust="spacing" textLength="258" x="238"
              y="44.7676">1. 互斥分组: 同一执行者不能授予互斥分组；
        </text>
        <text fill="#000000" font-family="sans-serif" font-size="13" lengthAdjust="spacing" textLength="297" x="238"
              y="60.0781">2. 基数约束: 执行者数、分组数和策略数相互制约；
        </text>
        <text fill="#000000" font-family="sans-serif" font-size="13" lengthAdjust="spacing" textLength="287" x="238"
              y="75.3887">3. 先决条件约束: 策略组A的执行依赖于策略组B；
        </text>
        <path d="M377,299.6992 L377,308.1992 L342.44,312.1992 L377,316.1992 L377,325.0098 A0,0 0 0 0 377,325.0098 L645,325.0098 A0,0 0 0 0 645,325.0098 L645,309.6992 L635,299.6992 L377,299.6992 A0,0 0 0 0 377,299.6992 "
              fill="#FBFB77" filter="url(#flicg5h4m6z26)" style="stroke:#A80036;stroke-width:1.0;"/>
        <path d="M635,299.6992 L635,309.6992 L645,309.6992 L635,299.6992 " fill="#FBFB77"
              style="stroke:#A80036;stroke-width:1.0;"/>
        <text fill="#000000" font-family="sans-serif" font-size="13" lengthAdjust="spacing" textLength="247" x="383"
              y="317.2676">终端与域账号、终端与硬件环境等动态制约
        </text><!--MD5=[54b69d41680ef9d7a8fa4ad890f31b48]
link ssd to executor-->
        <path codeLine="32" d="M117.21,82.2092 C103.15,103.9792 83.18,134.9092 69.05,156.7892 " fill="none"
              id="ssd-executor" style="stroke:#A80036;stroke-width:1.0;"/><!--MD5=[3493c3bb5298ac13ea9d124c8dc7f344]
link ssd to group-->
        <path codeLine="33" d="M151,82.2092 C165.22,103.9792 185.44,134.9092 199.74,156.7892 " fill="none"
              id="ssd-group" style="stroke:#A80036;stroke-width:1.0;"/><!--MD5=[95b33b8daf79487096e444ecf4f80e74]
link executor to group-->
        <path codeLine="34" d="M105.27,184.1992 C126.02,184.1992 149.61,184.1992 169.75,184.1992 " fill="none"
              id="executor-group" style="stroke:#A80036;stroke-width:1.0;"/>
        <line style="stroke:#A80036;stroke-width:1.0;" x1="169.86" x2="177.86" y1="184.1992" y2="178.1992"/>
        <line style="stroke:#A80036;stroke-width:1.0;" x1="169.86" x2="177.86" y1="184.1992" y2="190.1992"/>
        <line style="stroke:#A80036;stroke-width:1.0;" x1="169.86" x2="177.86" y1="184.1992" y2="184.1992"/>
        <ellipse cx="163.86" cy="184.1992" rx="4" ry="4" style="stroke:#A80036;stroke-width:1.0;fill:none;"/>
        <line style="stroke:#A80036;stroke-width:1.0;fill:none;" x1="105.09" x2="97.09" y1="184.1992" y2="190.1992"/>
        <line style="stroke:#A80036;stroke-width:1.0;fill:none;" x1="105.09" x2="97.09" y1="184.1992" y2="178.1992"/>
        <line style="stroke:#A80036;stroke-width:1.0;fill:none;" x1="105.09" x2="97.09" y1="184.1992" y2="184.1992"/>
        <ellipse cx="111.09" cy="184.1992" rx="4" ry="4" style="stroke:#A80036;stroke-width:1.0;fill:none;"/>
        <text fill="#000000" font-family="sans-serif" font-size="13" lengthAdjust="spacing" textLength="0" x="159.5"
              y="177.7676"/><!--MD5=[433e5478676985226b618405c5adc4af]
link group to policy-->
        <path codeLine="35" d="M264.35,184.1992 C283.2,184.1992 305.07,184.1992 324.86,184.1992 " fill="none"
              id="group-policy" style="stroke:#A80036;stroke-width:1.0;"/>
        <line style="stroke:#A80036;stroke-width:1.0;" x1="324.91" x2="332.91" y1="184.1992" y2="178.1992"/>
        <line style="stroke:#A80036;stroke-width:1.0;" x1="324.91" x2="332.91" y1="184.1992" y2="190.1992"/>
        <line style="stroke:#A80036;stroke-width:1.0;" x1="324.91" x2="332.91" y1="184.1992" y2="184.1992"/>
        <ellipse cx="318.91" cy="184.1992" rx="4" ry="4" style="stroke:#A80036;stroke-width:1.0;fill:none;"/>
        <line style="stroke:#A80036;stroke-width:1.0;fill:none;" x1="264.34" x2="256.34" y1="184.1992" y2="190.1992"/>
        <line style="stroke:#A80036;stroke-width:1.0;fill:none;" x1="264.34" x2="256.34" y1="184.1992" y2="178.1992"/>
        <line style="stroke:#A80036;stroke-width:1.0;fill:none;" x1="264.34" x2="256.34" y1="184.1992" y2="184.1992"/>
        <ellipse cx="270.34" cy="184.1992" rx="4" ry="4" style="stroke:#A80036;stroke-width:1.0;fill:none;"/>
        <text fill="#000000" font-family="sans-serif" font-size="13" lengthAdjust="spacing" textLength="0" x="314.5"
              y="177.7676"/><!--MD5=[b9d34f4a969dcc6249690a4efcc5f541]
link executor to session-->
        <path codeLine="36" d="M52,218.4292 C52,236.8392 52,259.6592 52,278.0492 " fill="none" id="executor-session"
              style="stroke:#A80036;stroke-width:1.0;"/>
        <line style="stroke:#A80036;stroke-width:1.0;" x1="56" x2="48" y1="281.1292" y2="281.1292"/>
        <line style="stroke:#A80036;stroke-width:1.0;" x1="56" x2="48" y1="278.1292" y2="278.1292"/>
        <line style="stroke:#A80036;stroke-width:1.0;" x1="52" x2="52" y1="277.1292" y2="285.1292"/>
        <line style="stroke:#A80036;stroke-width:1.0;" x1="48" x2="56" y1="215.3092" y2="215.3092"/>
        <line style="stroke:#A80036;stroke-width:1.0;" x1="48" x2="56" y1="218.3092" y2="218.3092"/>
        <line style="stroke:#A80036;stroke-width:1.0;" x1="52" x2="52" y1="219.3092" y2="211.3092"/><!--MD5=[da61e6ac2288df8455deabc51ce275bd]
link group to session-->
        <path codeLine="37" d="M176.32,216.2592 C150.89,235.6892 118.24,260.6192 92.79,280.0492 " fill="none"
              id="group-session" style="stroke:#A80036;stroke-width:1.0;"/>
        <line style="stroke:#A80036;stroke-width:1.0;" x1="91.7469" x2="86.89" y1="285.8792" y2="279.5223"/>
        <line style="stroke:#A80036;stroke-width:1.0;" x1="94.1308" x2="89.2738" y1="284.0578" y2="277.7009"/>
        <line style="stroke:#A80036;stroke-width:1.0;" x1="92.4969" x2="86.14" y1="280.2723" y2="285.1292"/>
        <line style="stroke:#A80036;stroke-width:1.0;" x1="176.4531" x2="177.9531" y1="216.1662" y2="211.3092"/>
        <line style="stroke:#A80036;stroke-width:1.0;" x1="176.4531" x2="187.6669" y1="216.1662" y2="211.3092"/>
        <line style="stroke:#A80036;stroke-width:1.0;" x1="176.4531" x2="182.81" y1="216.1662" y2="211.3092"/><!--MD5=[1b99b4b5fe9e80d43c59aa2350cc2b22]
link group to dsd-->
        <path codeLine="38" d="M229.85,211.3092 C240.49,232.9292 255.53,263.5092 266.17,285.1292 " fill="none"
              id="group-dsd" style="stroke:#A80036;stroke-width:1.0;"/><!--MD5=[c8bd7489781de86dc951a3e590541577]
link session to dsd-->
        <path codeLine="39" d="M91.02,312.1992 C125.25,312.1992 175.65,312.1992 215.65,312.1992 " fill="none"
              id="session-dsd" style="stroke:#A80036;stroke-width:1.0;"/>
        <text fill="#000000" font-family="sans-serif" font-size="13" lengthAdjust="spacing" textLength="0" x="197.5"
              y="305.7676"/><!--MD5=[ae7a51b308ac4c19f5a77ddfadb53085]
@startuml GBPC2
title GBPC-2 约束模型
'隐藏Entity标识
hide circle

'entity executor <<泛型>>
entity " <<执行者>> \nExecutor" as executor {
}

entity " <<分组>> \nGroup" as group {
}

entity " <<策略>> \nPolicy" as policy {
  *<<元数据>> meta
  *<<操作>> ops
}

entity " <<会话>> \nSession" as session {}

entity " <<静态职责分离>> \nSSD" as ssd #70d4ff {}

entity " <<动态职责分离>> \nDSD" as dsd #fd953b {}

note right of ssd
1. 互斥分组: 同一执行者不能授予互斥分组；
2. 基数约束: 执行者数、分组数和策略数相互制约；
3. 先决条件约束: 策略组A的执行依赖于策略组B；
end note
note right of dsd
终端与域账号、终端与硬件环境等动态制约
end note

ssd - - executor
ssd - - group
executor }o-right-o{group:"           "
group }o-right-o{policy:"          "
executor ||- -|| session
group }- -|| session
dsd -up- group
dsd -left- session:"                      "
@enduml

@startuml GBPC2
title GBPC-2 约束模型
hide circle

entity " <<执行者>> \nExecutor" as executor {
}

entity " <<分组>> \nGroup" as group {
}

entity " <<策略>> \nPolicy" as policy {
  *<<元数据>> meta
  *<<操作>> ops
}

entity " <<会话>> \nSession" as session {}

entity " <<静态职责分离>> \nSSD" as ssd #70d4ff {}

entity " <<动态职责分离>> \nDSD" as dsd #fd953b {}

note right of ssd
1. 互斥分组: 同一执行者不能授予互斥分组；
2. 基数约束: 执行者数、分组数和策略数相互制约；
3. 先决条件约束: 策略组A的执行依赖于策略组B；
end note
note right of dsd
终端与域账号、终端与硬件环境等动态制约
end note

ssd - - executor
ssd - - group
executor }o-right-o{group:"           "
group }o-right-o{policy:"          "
executor ||- -|| session
group }- -|| session
dsd -up- group
dsd -left- session:"                      "
@enduml

PlantUML version 1.2022.0(Wed Jan 12 00:16:42 CST 2022)
(GPL source distribution)
Java Runtime: OpenJDK Runtime Environment
JVM: OpenJDK 64-Bit Server VM
Default Encoding: UTF-8
Language: zh
Country: CN
-->
    </g>
</svg>